<svg width="100%" viewBox="0 0 2121 470" xmlns="http://www.w3.org/2000/svg" role="img">
<title>10S custom rows=[25,25] (21700)</title>
<desc>커스텀 행별 셀 수, N=50, 10S, 이론 v0.3.2-unified</desc>
<text font-family="Arial" font-size="12" fill="#5F5E5A" text-anchor="middle" x="1060.2" y="18">top face</text>
<g transform="translate(0,24)"><line x1="57.0" y1="57.0" x2="140.6" y2="57.0" stroke="#888888" stroke-width="13.3" stroke-linecap="round"/><line x1="140.6" y1="57.0" x2="224.2" y2="57.0" stroke="#888888" stroke-width="13.3" stroke-linecap="round"/><line x1="224.2" y1="57.0" x2="307.8" y2="57.0" stroke="#888888" stroke-width="13.3" stroke-linecap="round"/><line x1="307.8" y1="57.0" x2="391.4" y2="57.0" stroke="#888888" stroke-width="13.3" stroke-linecap="round"/><line x1="475.0" y1="57.0" x2="558.6" y2="57.0" stroke="#888888" stroke-width="13.3" stroke-linecap="round"/><line x1="558.6" y1="57.0" x2="642.2" y2="57.0" stroke="#888888" stroke-width="13.3" stroke-linecap="round"/><line x1="642.2" y1="57.0" x2="725.8" y2="57.0" stroke="#888888" stroke-width="13.3" stroke-linecap="round"/><line x1="725.8" y1="57.0" x2="809.4" y2="57.0" stroke="#888888" stroke-width="13.3" stroke-linecap="round"/><line x1="809.4" y1="57.0" x2="893.0" y2="57.0" stroke="#888888" stroke-width="13.3" stroke-linecap="round"/><line x1="893.0" y1="57.0" x2="976.6" y2="57.0" stroke="#888888" stroke-width="13.3" stroke-linecap="round"/><line x1="976.6" y1="57.0" x2="1060.2" y2="57.0" stroke="#888888" stroke-width="13.3" stroke-linecap="round"/><line x1="1060.2" y1="57.0" x2="1143.8" y2="57.0" stroke="#888888" stroke-width="13.3" stroke-linecap="round"/><line x1="1143.8" y1="57.0" x2="1227.4" y2="57.0" stroke="#888888" stroke-width="13.3" stroke-linecap="round"/><line x1="1311.0" y1="57.0" x2="1394.6" y2="57.0" stroke="#888888" stroke-width="13.3" stroke-linecap="round"/><line x1="1394.6" y1="57.0" x2="1478.2" y2="57.0" stroke="#888888" stroke-width="13.3" stroke-linecap="round"/><line x1="1478.2" y1="57.0" x2="1561.8" y2="57.0" stroke="#888888" stroke-width="13.3" stroke-linecap="round"/><line x1="1561.8" y1="57.0" x2="1645.4" y2="57.0" stroke="#888888" stroke-width="13.3" stroke-linecap="round"/><line x1="1645.4" y1="57.0" x2="1729.0" y2="57.0" stroke="#888888" stroke-width="13.3" stroke-linecap="round"/><line x1="1729.0" y1="57.0" x2="1812.6" y2="57.0" stroke="#888888" stroke-width="13.3" stroke-linecap="round"/><line x1="1812.6" y1="57.0" x2="1896.2" y2="57.0" stroke="#888888" stroke-width="13.3" stroke-linecap="round"/><line x1="1896.2" y1="57.0" x2="1979.8" y2="57.0" stroke="#888888" stroke-width="13.3" stroke-linecap="round"/><line x1="1979.8" y1="57.0" x2="2063.4" y2="57.0" stroke="#888888" stroke-width="13.3" stroke-linecap="round"/><line x1="2063.4" y1="140.6" x2="1979.8" y2="140.6" stroke="#888888" stroke-width="13.3" stroke-linecap="round"/><line x1="1979.8" y1="140.6" x2="1896.2" y2="140.6" stroke="#888888" stroke-width="13.3" stroke-linecap="round"/><line x1="1896.2" y1="140.6" x2="1812.6" y2="140.6" stroke="#888888" stroke-width="13.3" stroke-linecap="round"/><line x1="1812.6" y1="140.6" x2="1729.0" y2="140.6" stroke="#888888" stroke-width="13.3" stroke-linecap="round"/><line x1="1729.0" y1="140.6" x2="1645.4" y2="140.6" stroke="#888888" stroke-width="13.3" stroke-linecap="round"/><line x1="1645.4" y1="140.6" x2="1561.8" y2="140.6" stroke="#888888" stroke-width="13.3" stroke-linecap="round"/><line x1="1561.8" y1="140.6" x2="1478.2" y2="140.6" stroke="#888888" stroke-width="13.3" stroke-linecap="round"/><line x1="1478.2" y1="140.6" x2="1394.6" y2="140.6" stroke="#888888" stroke-width="13.3" stroke-linecap="round"/><line x1="1394.6" y1="140.6" x2="1311.0" y2="140.6" stroke="#888888" stroke-width="13.3" stroke-linecap="round"/><line x1="1227.4" y1="140.6" x2="1143.8" y2="140.6" stroke="#888888" stroke-width="13.3" stroke-linecap="round"/><line x1="1143.8" y1="140.6" x2="1060.2" y2="140.6" stroke="#888888" stroke-width="13.3" stroke-linecap="round"/><line x1="1060.2" y1="140.6" x2="976.6" y2="140.6" stroke="#888888" stroke-width="13.3" stroke-linecap="round"/><line x1="976.6" y1="140.6" x2="893.0" y2="140.6" stroke="#888888" stroke-width="13.3" stroke-linecap="round"/><line x1="893.0" y1="140.6" x2="809.4" y2="140.6" stroke="#888888" stroke-width="13.3" stroke-linecap="round"/><line x1="809.4" y1="140.6" x2="725.8" y2="140.6" stroke="#888888" stroke-width="13.3" stroke-linecap="round"/><line x1="725.8" y1="140.6" x2="642.2" y2="140.6" stroke="#888888" stroke-width="13.3" stroke-linecap="round"/><line x1="642.2" y1="140.6" x2="558.6" y2="140.6" stroke="#888888" stroke-width="13.3" stroke-linecap="round"/><line x1="558.6" y1="140.6" x2="475.0" y2="140.6" stroke="#888888" stroke-width="13.3" stroke-linecap="round"/><line x1="391.4" y1="140.6" x2="307.8" y2="140.6" stroke="#888888" stroke-width="13.3" stroke-linecap="round"/><line x1="307.8" y1="140.6" x2="224.2" y2="140.6" stroke="#888888" stroke-width="13.3" stroke-linecap="round"/><line x1="224.2" y1="140.6" x2="140.6" y2="140.6" stroke="#888888" stroke-width="13.3" stroke-linecap="round"/><line x1="140.6" y1="140.6" x2="57.0" y2="140.6" stroke="#888888" stroke-width="13.3" stroke-linecap="round"/><circle cx="57" cy="57" r="41.8" fill="none" stroke="#C0392B" stroke-width="3.34"/>
<circle cx="57" cy="57" r="19.00" fill="#C0392B"/><circle cx="140.6" cy="57" r="41.8" fill="none" stroke="#C0392B" stroke-width="3.34"/>
<circle cx="140.6" cy="57" r="19.00" fill="#C0392B"/><circle cx="224.2" cy="57" r="41.8" fill="none" stroke="#C0392B" stroke-width="3.34"/>
<circle cx="224.2" cy="57" r="19.00" fill="#C0392B"/><circle cx="307.8" cy="57" r="41.8" fill="none" stroke="#C0392B" stroke-width="3.34"/>
<circle cx="307.8" cy="57" r="19.00" fill="#C0392B"/><circle cx="391.4" cy="57" r="41.8" fill="none" stroke="#C0392B" stroke-width="3.34"/>
<circle cx="391.4" cy="57" r="19.00" fill="#C0392B"/><circle cx="475" cy="57" r="41.8" fill="none" stroke="#1a1a1a" stroke-width="3.34"/>
<circle cx="475" cy="57" r="10.45" fill="#1a1a1a"/><circle cx="558.5999999999999" cy="57" r="41.8" fill="none" stroke="#1a1a1a" stroke-width="3.34"/>
<circle cx="558.5999999999999" cy="57" r="10.45" fill="#1a1a1a"/><circle cx="642.1999999999999" cy="57" r="41.8" fill="none" stroke="#1a1a1a" stroke-width="3.34"/>
<circle cx="642.1999999999999" cy="57" r="10.45" fill="#1a1a1a"/><circle cx="725.8" cy="57" r="41.8" fill="none" stroke="#1a1a1a" stroke-width="3.34"/>
<circle cx="725.8" cy="57" r="10.45" fill="#1a1a1a"/><circle cx="809.4" cy="57" r="41.8" fill="none" stroke="#1a1a1a" stroke-width="3.34"/>
<circle cx="809.4" cy="57" r="10.45" fill="#1a1a1a"/><circle cx="893" cy="57" r="41.8" fill="none" stroke="#C0392B" stroke-width="3.34"/>
<circle cx="893" cy="57" r="19.00" fill="#C0392B"/><circle cx="976.5999999999999" cy="57" r="41.8" fill="none" stroke="#C0392B" stroke-width="3.34"/>
<circle cx="976.5999999999999" cy="57" r="19.00" fill="#C0392B"/><circle cx="1060.2" cy="57" r="41.8" fill="none" stroke="#C0392B" stroke-width="3.34"/>
<circle cx="1060.2" cy="57" r="19.00" fill="#C0392B"/><circle cx="1143.8" cy="57" r="41.8" fill="none" stroke="#C0392B" stroke-width="3.34"/>
<circle cx="1143.8" cy="57" r="19.00" fill="#C0392B"/><circle cx="1227.3999999999999" cy="57" r="41.8" fill="none" stroke="#C0392B" stroke-width="3.34"/>
<circle cx="1227.3999999999999" cy="57" r="19.00" fill="#C0392B"/><circle cx="1311" cy="57" r="41.8" fill="none" stroke="#1a1a1a" stroke-width="3.34"/>
<circle cx="1311" cy="57" r="10.45" fill="#1a1a1a"/><circle cx="1394.6" cy="57" r="41.8" fill="none" stroke="#1a1a1a" stroke-width="3.34"/>
<circle cx="1394.6" cy="57" r="10.45" fill="#1a1a1a"/><circle cx="1478.1999999999998" cy="57" r="41.8" fill="none" stroke="#1a1a1a" stroke-width="3.34"/>
<circle cx="1478.1999999999998" cy="57" r="10.45" fill="#1a1a1a"/><circle cx="1561.8" cy="57" r="41.8" fill="none" stroke="#1a1a1a" stroke-width="3.34"/>
<circle cx="1561.8" cy="57" r="10.45" fill="#1a1a1a"/><circle cx="1645.3999999999999" cy="57" r="41.8" fill="none" stroke="#1a1a1a" stroke-width="3.34"/>
<circle cx="1645.3999999999999" cy="57" r="10.45" fill="#1a1a1a"/><circle cx="1729" cy="57" r="41.8" fill="none" stroke="#C0392B" stroke-width="3.34"/>
<circle cx="1729" cy="57" r="19.00" fill="#C0392B"/><circle cx="1812.6" cy="57" r="41.8" fill="none" stroke="#C0392B" stroke-width="3.34"/>
<circle cx="1812.6" cy="57" r="19.00" fill="#C0392B"/><circle cx="1896.1999999999998" cy="57" r="41.8" fill="none" stroke="#C0392B" stroke-width="3.34"/>
<circle cx="1896.1999999999998" cy="57" r="19.00" fill="#C0392B"/><circle cx="1979.8" cy="57" r="41.8" fill="none" stroke="#C0392B" stroke-width="3.34"/>
<circle cx="1979.8" cy="57" r="19.00" fill="#C0392B"/><circle cx="2063.4" cy="57" r="41.8" fill="none" stroke="#C0392B" stroke-width="3.34"/>
<circle cx="2063.4" cy="57" r="19.00" fill="#C0392B"/><circle cx="2063.4" cy="140.6" r="41.8" fill="none" stroke="#1a1a1a" stroke-width="3.34"/>
<circle cx="2063.4" cy="140.6" r="10.45" fill="#1a1a1a"/><circle cx="1979.8" cy="140.6" r="41.8" fill="none" stroke="#1a1a1a" stroke-width="3.34"/>
<circle cx="1979.8" cy="140.6" r="10.45" fill="#1a1a1a"/><circle cx="1896.1999999999998" cy="140.6" r="41.8" fill="none" stroke="#1a1a1a" stroke-width="3.34"/>
<circle cx="1896.1999999999998" cy="140.6" r="10.45" fill="#1a1a1a"/><circle cx="1812.6" cy="140.6" r="41.8" fill="none" stroke="#1a1a1a" stroke-width="3.34"/>
<circle cx="1812.6" cy="140.6" r="10.45" fill="#1a1a1a"/><circle cx="1729" cy="140.6" r="41.8" fill="none" stroke="#1a1a1a" stroke-width="3.34"/>
<circle cx="1729" cy="140.6" r="10.45" fill="#1a1a1a"/><circle cx="1645.3999999999999" cy="140.6" r="41.8" fill="none" stroke="#C0392B" stroke-width="3.34"/>
<circle cx="1645.3999999999999" cy="140.6" r="19.00" fill="#C0392B"/><circle cx="1561.8" cy="140.6" r="41.8" fill="none" stroke="#C0392B" stroke-width="3.34"/>
<circle cx="1561.8" cy="140.6" r="19.00" fill="#C0392B"/><circle cx="1478.1999999999998" cy="140.6" r="41.8" fill="none" stroke="#C0392B" stroke-width="3.34"/>
<circle cx="1478.1999999999998" cy="140.6" r="19.00" fill="#C0392B"/><circle cx="1394.6" cy="140.6" r="41.8" fill="none" stroke="#C0392B" stroke-width="3.34"/>
<circle cx="1394.6" cy="140.6" r="19.00" fill="#C0392B"/><circle cx="1311" cy="140.6" r="41.8" fill="none" stroke="#C0392B" stroke-width="3.34"/>
<circle cx="1311" cy="140.6" r="19.00" fill="#C0392B"/><circle cx="1227.3999999999999" cy="140.6" r="41.8" fill="none" stroke="#1a1a1a" stroke-width="3.34"/>
<circle cx="1227.3999999999999" cy="140.6" r="10.45" fill="#1a1a1a"/><circle cx="1143.8" cy="140.6" r="41.8" fill="none" stroke="#1a1a1a" stroke-width="3.34"/>
<circle cx="1143.8" cy="140.6" r="10.45" fill="#1a1a1a"/><circle cx="1060.2" cy="140.6" r="41.8" fill="none" stroke="#1a1a1a" stroke-width="3.34"/>
<circle cx="1060.2" cy="140.6" r="10.45" fill="#1a1a1a"/><circle cx="976.5999999999999" cy="140.6" r="41.8" fill="none" stroke="#1a1a1a" stroke-width="3.34"/>
<circle cx="976.5999999999999" cy="140.6" r="10.45" fill="#1a1a1a"/><circle cx="893" cy="140.6" r="41.8" fill="none" stroke="#1a1a1a" stroke-width="3.34"/>
<circle cx="893" cy="140.6" r="10.45" fill="#1a1a1a"/><circle cx="809.4" cy="140.6" r="41.8" fill="none" stroke="#C0392B" stroke-width="3.34"/>
<circle cx="809.4" cy="140.6" r="19.00" fill="#C0392B"/><circle cx="725.8" cy="140.6" r="41.8" fill="none" stroke="#C0392B" stroke-width="3.34"/>
<circle cx="725.8" cy="140.6" r="19.00" fill="#C0392B"/><circle cx="642.1999999999999" cy="140.6" r="41.8" fill="none" stroke="#C0392B" stroke-width="3.34"/>
<circle cx="642.1999999999999" cy="140.6" r="19.00" fill="#C0392B"/><circle cx="558.5999999999999" cy="140.6" r="41.8" fill="none" stroke="#C0392B" stroke-width="3.34"/>
<circle cx="558.5999999999999" cy="140.6" r="19.00" fill="#C0392B"/><circle cx="475" cy="140.6" r="41.8" fill="none" stroke="#C0392B" stroke-width="3.34"/>
<circle cx="475" cy="140.6" r="19.00" fill="#C0392B"/><circle cx="391.4" cy="140.6" r="41.8" fill="none" stroke="#1a1a1a" stroke-width="3.34"/>
<circle cx="391.4" cy="140.6" r="10.45" fill="#1a1a1a"/><circle cx="307.8" cy="140.6" r="41.8" fill="none" stroke="#1a1a1a" stroke-width="3.34"/>
<circle cx="307.8" cy="140.6" r="10.45" fill="#1a1a1a"/><circle cx="224.2" cy="140.6" r="41.8" fill="none" stroke="#1a1a1a" stroke-width="3.34"/>
<circle cx="224.2" cy="140.6" r="10.45" fill="#1a1a1a"/><circle cx="140.6" cy="140.6" r="41.8" fill="none" stroke="#1a1a1a" stroke-width="3.34"/>
<circle cx="140.6" cy="140.6" r="10.45" fill="#1a1a1a"/><circle cx="57" cy="140.6" r="41.8" fill="none" stroke="#1a1a1a" stroke-width="3.34"/>
<circle cx="57" cy="140.6" r="10.45" fill="#1a1a1a"/><circle cx="57.0" cy="57.0" r="9.3" fill="#C0392B" stroke="#7B241C" stroke-width="1"/><text font-family="Arial" font-size="11" font-weight="bold" fill="#ffffff" text-anchor="middle" x="57.0" y="61.0">B+</text><circle cx="57.0" cy="140.6" r="9.3" fill="#0C447C" stroke="#042C53" stroke-width="1"/><text font-family="Arial" font-size="11" font-weight="bold" fill="#ffffff" text-anchor="middle" x="57.0" y="144.6">B-</text></g>
<line x1="20" y1="233.6" x2="2100.4" y2="233.6" stroke="#cccccc" stroke-width="1" stroke-dasharray="4 3"/>
<text font-family="Arial" font-size="12" fill="#5F5E5A" text-anchor="middle" x="1060.2" y="247.6">bottom face</text>
<g transform="translate(0,245.6)"><line x1="57.0" y1="57.0" x2="140.6" y2="57.0" stroke="#888888" stroke-width="13.3" stroke-linecap="round"/><line x1="140.6" y1="57.0" x2="224.2" y2="57.0" stroke="#888888" stroke-width="13.3" stroke-linecap="round"/><line x1="224.2" y1="57.0" x2="307.8" y2="57.0" stroke="#888888" stroke-width="13.3" stroke-linecap="round"/><line x1="307.8" y1="57.0" x2="391.4" y2="57.0" stroke="#888888" stroke-width="13.3" stroke-linecap="round"/><line x1="391.4" y1="57.0" x2="475.0" y2="57.0" stroke="#888888" stroke-width="13.3" stroke-linecap="round"/><line x1="475.0" y1="57.0" x2="558.6" y2="57.0" stroke="#888888" stroke-width="13.3" stroke-linecap="round"/><line x1="558.6" y1="57.0" x2="642.2" y2="57.0" stroke="#888888" stroke-width="13.3" stroke-linecap="round"/><line x1="642.2" y1="57.0" x2="725.8" y2="57.0" stroke="#888888" stroke-width="13.3" stroke-linecap="round"/><line x1="725.8" y1="57.0" x2="809.4" y2="57.0" stroke="#888888" stroke-width="13.3" stroke-linecap="round"/><line x1="893.0" y1="57.0" x2="976.6" y2="57.0" stroke="#888888" stroke-width="13.3" stroke-linecap="round"/><line x1="976.6" y1="57.0" x2="1060.2" y2="57.0" stroke="#888888" stroke-width="13.3" stroke-linecap="round"/><line x1="1060.2" y1="57.0" x2="1143.8" y2="57.0" stroke="#888888" stroke-width="13.3" stroke-linecap="round"/><line x1="1143.8" y1="57.0" x2="1227.4" y2="57.0" stroke="#888888" stroke-width="13.3" stroke-linecap="round"/><line x1="1227.4" y1="57.0" x2="1311.0" y2="57.0" stroke="#888888" stroke-width="13.3" stroke-linecap="round"/><line x1="1311.0" y1="57.0" x2="1394.6" y2="57.0" stroke="#888888" stroke-width="13.3" stroke-linecap="round"/><line x1="1394.6" y1="57.0" x2="1478.2" y2="57.0" stroke="#888888" stroke-width="13.3" stroke-linecap="round"/><line x1="1478.2" y1="57.0" x2="1561.8" y2="57.0" stroke="#888888" stroke-width="13.3" stroke-linecap="round"/><line x1="1561.8" y1="57.0" x2="1645.4" y2="57.0" stroke="#888888" stroke-width="13.3" stroke-linecap="round"/><line x1="1729.0" y1="57.0" x2="1812.6" y2="57.0" stroke="#888888" stroke-width="13.3" stroke-linecap="round"/><line x1="1729.0" y1="57.0" x2="1729.0" y2="140.6" stroke="#888888" stroke-width="13.3" stroke-linecap="round"/><line x1="1812.6" y1="57.0" x2="1896.2" y2="57.0" stroke="#888888" stroke-width="13.3" stroke-linecap="round"/><line x1="1812.6" y1="57.0" x2="1812.6" y2="140.6" stroke="#888888" stroke-width="13.3" stroke-linecap="round"/><line x1="1896.2" y1="57.0" x2="1979.8" y2="57.0" stroke="#888888" stroke-width="13.3" stroke-linecap="round"/><line x1="1896.2" y1="57.0" x2="1896.2" y2="140.6" stroke="#888888" stroke-width="13.3" stroke-linecap="round"/><line x1="1979.8" y1="57.0" x2="2063.4" y2="57.0" stroke="#888888" stroke-width="13.3" stroke-linecap="round"/><line x1="1979.8" y1="57.0" x2="1979.8" y2="140.6" stroke="#888888" stroke-width="13.3" stroke-linecap="round"/><line x1="2063.4" y1="57.0" x2="2063.4" y2="140.6" stroke="#888888" stroke-width="13.3" stroke-linecap="round"/><line x1="2063.4" y1="140.6" x2="1979.8" y2="140.6" stroke="#888888" stroke-width="13.3" stroke-linecap="round"/><line x1="1979.8" y1="140.6" x2="1896.2" y2="140.6" stroke="#888888" stroke-width="13.3" stroke-linecap="round"/><line x1="1896.2" y1="140.6" x2="1812.6" y2="140.6" stroke="#888888" stroke-width="13.3" stroke-linecap="round"/><line x1="1812.6" y1="140.6" x2="1729.0" y2="140.6" stroke="#888888" stroke-width="13.3" stroke-linecap="round"/><line x1="1645.4" y1="140.6" x2="1561.8" y2="140.6" stroke="#888888" stroke-width="13.3" stroke-linecap="round"/><line x1="1561.8" y1="140.6" x2="1478.2" y2="140.6" stroke="#888888" stroke-width="13.3" stroke-linecap="round"/><line x1="1478.2" y1="140.6" x2="1394.6" y2="140.6" stroke="#888888" stroke-width="13.3" stroke-linecap="round"/><line x1="1394.6" y1="140.6" x2="1311.0" y2="140.6" stroke="#888888" stroke-width="13.3" stroke-linecap="round"/><line x1="1311.0" y1="140.6" x2="1227.4" y2="140.6" stroke="#888888" stroke-width="13.3" stroke-linecap="round"/><line x1="1227.4" y1="140.6" x2="1143.8" y2="140.6" stroke="#888888" stroke-width="13.3" stroke-linecap="round"/><line x1="1143.8" y1="140.6" x2="1060.2" y2="140.6" stroke="#888888" stroke-width="13.3" stroke-linecap="round"/><line x1="1060.2" y1="140.6" x2="976.6" y2="140.6" stroke="#888888" stroke-width="13.3" stroke-linecap="round"/><line x1="976.6" y1="140.6" x2="893.0" y2="140.6" stroke="#888888" stroke-width="13.3" stroke-linecap="round"/><line x1="809.4" y1="140.6" x2="725.8" y2="140.6" stroke="#888888" stroke-width="13.3" stroke-linecap="round"/><line x1="725.8" y1="140.6" x2="642.2" y2="140.6" stroke="#888888" stroke-width="13.3" stroke-linecap="round"/><line x1="642.2" y1="140.6" x2="558.6" y2="140.6" stroke="#888888" stroke-width="13.3" stroke-linecap="round"/><line x1="558.6" y1="140.6" x2="475.0" y2="140.6" stroke="#888888" stroke-width="13.3" stroke-linecap="round"/><line x1="475.0" y1="140.6" x2="391.4" y2="140.6" stroke="#888888" stroke-width="13.3" stroke-linecap="round"/><line x1="391.4" y1="140.6" x2="307.8" y2="140.6" stroke="#888888" stroke-width="13.3" stroke-linecap="round"/><line x1="307.8" y1="140.6" x2="224.2" y2="140.6" stroke="#888888" stroke-width="13.3" stroke-linecap="round"/><line x1="224.2" y1="140.6" x2="140.6" y2="140.6" stroke="#888888" stroke-width="13.3" stroke-linecap="round"/><line x1="140.6" y1="140.6" x2="57.0" y2="140.6" stroke="#888888" stroke-width="13.3" stroke-linecap="round"/><circle cx="57" cy="57" r="41.8" fill="none" stroke="#1a1a1a" stroke-width="3.34"/>
<circle cx="57" cy="57" r="10.45" fill="#1a1a1a"/><circle cx="140.6" cy="57" r="41.8" fill="none" stroke="#1a1a1a" stroke-width="3.34"/>
<circle cx="140.6" cy="57" r="10.45" fill="#1a1a1a"/><circle cx="224.2" cy="57" r="41.8" fill="none" stroke="#1a1a1a" stroke-width="3.34"/>
<circle cx="224.2" cy="57" r="10.45" fill="#1a1a1a"/><circle cx="307.8" cy="57" r="41.8" fill="none" stroke="#1a1a1a" stroke-width="3.34"/>
<circle cx="307.8" cy="57" r="10.45" fill="#1a1a1a"/><circle cx="391.4" cy="57" r="41.8" fill="none" stroke="#1a1a1a" stroke-width="3.34"/>
<circle cx="391.4" cy="57" r="10.45" fill="#1a1a1a"/><circle cx="475" cy="57" r="41.8" fill="none" stroke="#C0392B" stroke-width="3.34"/>
<circle cx="475" cy="57" r="19.00" fill="#C0392B"/><circle cx="558.5999999999999" cy="57" r="41.8" fill="none" stroke="#C0392B" stroke-width="3.34"/>
<circle cx="558.5999999999999" cy="57" r="19.00" fill="#C0392B"/><circle cx="642.1999999999999" cy="57" r="41.8" fill="none" stroke="#C0392B" stroke-width="3.34"/>
<circle cx="642.1999999999999" cy="57" r="19.00" fill="#C0392B"/><circle cx="725.8" cy="57" r="41.8" fill="none" stroke="#C0392B" stroke-width="3.34"/>
<circle cx="725.8" cy="57" r="19.00" fill="#C0392B"/><circle cx="809.4" cy="57" r="41.8" fill="none" stroke="#C0392B" stroke-width="3.34"/>
<circle cx="809.4" cy="57" r="19.00" fill="#C0392B"/><circle cx="893" cy="57" r="41.8" fill="none" stroke="#1a1a1a" stroke-width="3.34"/>
<circle cx="893" cy="57" r="10.45" fill="#1a1a1a"/><circle cx="976.5999999999999" cy="57" r="41.8" fill="none" stroke="#1a1a1a" stroke-width="3.34"/>
<circle cx="976.5999999999999" cy="57" r="10.45" fill="#1a1a1a"/><circle cx="1060.2" cy="57" r="41.8" fill="none" stroke="#1a1a1a" stroke-width="3.34"/>
<circle cx="1060.2" cy="57" r="10.45" fill="#1a1a1a"/><circle cx="1143.8" cy="57" r="41.8" fill="none" stroke="#1a1a1a" stroke-width="3.34"/>
<circle cx="1143.8" cy="57" r="10.45" fill="#1a1a1a"/><circle cx="1227.3999999999999" cy="57" r="41.8" fill="none" stroke="#1a1a1a" stroke-width="3.34"/>
<circle cx="1227.3999999999999" cy="57" r="10.45" fill="#1a1a1a"/><circle cx="1311" cy="57" r="41.8" fill="none" stroke="#C0392B" stroke-width="3.34"/>
<circle cx="1311" cy="57" r="19.00" fill="#C0392B"/><circle cx="1394.6" cy="57" r="41.8" fill="none" stroke="#C0392B" stroke-width="3.34"/>
<circle cx="1394.6" cy="57" r="19.00" fill="#C0392B"/><circle cx="1478.1999999999998" cy="57" r="41.8" fill="none" stroke="#C0392B" stroke-width="3.34"/>
<circle cx="1478.1999999999998" cy="57" r="19.00" fill="#C0392B"/><circle cx="1561.8" cy="57" r="41.8" fill="none" stroke="#C0392B" stroke-width="3.34"/>
<circle cx="1561.8" cy="57" r="19.00" fill="#C0392B"/><circle cx="1645.3999999999999" cy="57" r="41.8" fill="none" stroke="#C0392B" stroke-width="3.34"/>
<circle cx="1645.3999999999999" cy="57" r="19.00" fill="#C0392B"/><circle cx="1729" cy="57" r="41.8" fill="none" stroke="#1a1a1a" stroke-width="3.34"/>
<circle cx="1729" cy="57" r="10.45" fill="#1a1a1a"/><circle cx="1812.6" cy="57" r="41.8" fill="none" stroke="#1a1a1a" stroke-width="3.34"/>
<circle cx="1812.6" cy="57" r="10.45" fill="#1a1a1a"/><circle cx="1896.1999999999998" cy="57" r="41.8" fill="none" stroke="#1a1a1a" stroke-width="3.34"/>
<circle cx="1896.1999999999998" cy="57" r="10.45" fill="#1a1a1a"/><circle cx="1979.8" cy="57" r="41.8" fill="none" stroke="#1a1a1a" stroke-width="3.34"/>
<circle cx="1979.8" cy="57" r="10.45" fill="#1a1a1a"/><circle cx="2063.4" cy="57" r="41.8" fill="none" stroke="#1a1a1a" stroke-width="3.34"/>
<circle cx="2063.4" cy="57" r="10.45" fill="#1a1a1a"/><circle cx="2063.4" cy="140.6" r="41.8" fill="none" stroke="#C0392B" stroke-width="3.34"/>
<circle cx="2063.4" cy="140.6" r="19.00" fill="#C0392B"/><circle cx="1979.8" cy="140.6" r="41.8" fill="none" stroke="#C0392B" stroke-width="3.34"/>
<circle cx="1979.8" cy="140.6" r="19.00" fill="#C0392B"/><circle cx="1896.1999999999998" cy="140.6" r="41.8" fill="none" stroke="#C0392B" stroke-width="3.34"/>
<circle cx="1896.1999999999998" cy="140.6" r="19.00" fill="#C0392B"/><circle cx="1812.6" cy="140.6" r="41.8" fill="none" stroke="#C0392B" stroke-width="3.34"/>
<circle cx="1812.6" cy="140.6" r="19.00" fill="#C0392B"/><circle cx="1729" cy="140.6" r="41.8" fill="none" stroke="#C0392B" stroke-width="3.34"/>
<circle cx="1729" cy="140.6" r="19.00" fill="#C0392B"/><circle cx="1645.3999999999999" cy="140.6" r="41.8" fill="none" stroke="#1a1a1a" stroke-width="3.34"/>
<circle cx="1645.3999999999999" cy="140.6" r="10.45" fill="#1a1a1a"/><circle cx="1561.8" cy="140.6" r="41.8" fill="none" stroke="#1a1a1a" stroke-width="3.34"/>
<circle cx="1561.8" cy="140.6" r="10.45" fill="#1a1a1a"/><circle cx="1478.1999999999998" cy="140.6" r="41.8" fill="none" stroke="#1a1a1a" stroke-width="3.34"/>
<circle cx="1478.1999999999998" cy="140.6" r="10.45" fill="#1a1a1a"/><circle cx="1394.6" cy="140.6" r="41.8" fill="none" stroke="#1a1a1a" stroke-width="3.34"/>
<circle cx="1394.6" cy="140.6" r="10.45" fill="#1a1a1a"/><circle cx="1311" cy="140.6" r="41.8" fill="none" stroke="#1a1a1a" stroke-width="3.34"/>
<circle cx="1311" cy="140.6" r="10.45" fill="#1a1a1a"/><circle cx="1227.3999999999999" cy="140.6" r="41.8" fill="none" stroke="#C0392B" stroke-width="3.34"/>
<circle cx="1227.3999999999999" cy="140.6" r="19.00" fill="#C0392B"/><circle cx="1143.8" cy="140.6" r="41.8" fill="none" stroke="#C0392B" stroke-width="3.34"/>
<circle cx="1143.8" cy="140.6" r="19.00" fill="#C0392B"/><circle cx="1060.2" cy="140.6" r="41.8" fill="none" stroke="#C0392B" stroke-width="3.34"/>
<circle cx="1060.2" cy="140.6" r="19.00" fill="#C0392B"/><circle cx="976.5999999999999" cy="140.6" r="41.8" fill="none" stroke="#C0392B" stroke-width="3.34"/>
<circle cx="976.5999999999999" cy="140.6" r="19.00" fill="#C0392B"/><circle cx="893" cy="140.6" r="41.8" fill="none" stroke="#C0392B" stroke-width="3.34"/>
<circle cx="893" cy="140.6" r="19.00" fill="#C0392B"/><circle cx="809.4" cy="140.6" r="41.8" fill="none" stroke="#1a1a1a" stroke-width="3.34"/>
<circle cx="809.4" cy="140.6" r="10.45" fill="#1a1a1a"/><circle cx="725.8" cy="140.6" r="41.8" fill="none" stroke="#1a1a1a" stroke-width="3.34"/>
<circle cx="725.8" cy="140.6" r="10.45" fill="#1a1a1a"/><circle cx="642.1999999999999" cy="140.6" r="41.8" fill="none" stroke="#1a1a1a" stroke-width="3.34"/>
<circle cx="642.1999999999999" cy="140.6" r="10.45" fill="#1a1a1a"/><circle cx="558.5999999999999" cy="140.6" r="41.8" fill="none" stroke="#1a1a1a" stroke-width="3.34"/>
<circle cx="558.5999999999999" cy="140.6" r="10.45" fill="#1a1a1a"/><circle cx="475" cy="140.6" r="41.8" fill="none" stroke="#1a1a1a" stroke-width="3.34"/>
<circle cx="475" cy="140.6" r="10.45" fill="#1a1a1a"/><circle cx="391.4" cy="140.6" r="41.8" fill="none" stroke="#C0392B" stroke-width="3.34"/>
<circle cx="391.4" cy="140.6" r="19.00" fill="#C0392B"/><circle cx="307.8" cy="140.6" r="41.8" fill="none" stroke="#C0392B" stroke-width="3.34"/>
<circle cx="307.8" cy="140.6" r="19.00" fill="#C0392B"/><circle cx="224.2" cy="140.6" r="41.8" fill="none" stroke="#C0392B" stroke-width="3.34"/>
<circle cx="224.2" cy="140.6" r="19.00" fill="#C0392B"/><circle cx="140.6" cy="140.6" r="41.8" fill="none" stroke="#C0392B" stroke-width="3.34"/>
<circle cx="140.6" cy="140.6" r="19.00" fill="#C0392B"/><circle cx="57" cy="140.6" r="41.8" fill="none" stroke="#C0392B" stroke-width="3.34"/>
<circle cx="57" cy="140.6" r="19.00" fill="#C0392B"/></g>
<text font-family="Arial" font-size="8" fill="#27AE60" text-anchor="middle" x="1060.2" y="463.2">v0.3.2-unified · custom · rows=[25,25] · N=50 · 10S</text>
</svg>