<svg width="100%" viewBox="0 0 449 1807" xmlns="http://www.w3.org/2000/svg" role="img">
<title>10S custom rows=[5,5,5,5,5,5,5,5,5,5] (21700)</title>
<desc>커스텀 행별 셀 수, N=50, 10S, 이론 v0.3.2-unified</desc>
<text font-family="Arial" font-size="12" fill="#5F5E5A" text-anchor="middle" x="224.2" y="18">top face</text>
<g transform="translate(0,24)"><line x1="57.0" y1="57.0" x2="140.6" y2="57.0" stroke="#888888" stroke-width="13.3" stroke-linecap="round"/><line x1="140.6" y1="57.0" x2="224.2" y2="57.0" stroke="#888888" stroke-width="13.3" stroke-linecap="round"/><line x1="224.2" y1="57.0" x2="307.8" y2="57.0" stroke="#888888" stroke-width="13.3" stroke-linecap="round"/><line x1="307.8" y1="57.0" x2="391.4" y2="57.0" stroke="#888888" stroke-width="13.3" stroke-linecap="round"/><line x1="391.4" y1="140.6" x2="307.8" y2="140.6" stroke="#888888" stroke-width="13.3" stroke-linecap="round"/><line x1="391.4" y1="140.6" x2="391.4" y2="224.2" stroke="#888888" stroke-width="13.3" stroke-linecap="round"/><line x1="307.8" y1="140.6" x2="224.2" y2="140.6" stroke="#888888" stroke-width="13.3" stroke-linecap="round"/><line x1="307.8" y1="140.6" x2="307.8" y2="224.2" stroke="#888888" stroke-width="13.3" stroke-linecap="round"/><line x1="224.2" y1="140.6" x2="140.6" y2="140.6" stroke="#888888" stroke-width="13.3" stroke-linecap="round"/><line x1="224.2" y1="140.6" x2="224.2" y2="224.2" stroke="#888888" stroke-width="13.3" stroke-linecap="round"/><line x1="140.6" y1="140.6" x2="57.0" y2="140.6" stroke="#888888" stroke-width="13.3" stroke-linecap="round"/><line x1="140.6" y1="140.6" x2="140.6" y2="224.2" stroke="#888888" stroke-width="13.3" stroke-linecap="round"/><line x1="57.0" y1="140.6" x2="57.0" y2="224.2" stroke="#888888" stroke-width="13.3" stroke-linecap="round"/><line x1="57.0" y1="224.2" x2="140.6" y2="224.2" stroke="#888888" stroke-width="13.3" stroke-linecap="round"/><line x1="140.6" y1="224.2" x2="224.2" y2="224.2" stroke="#888888" stroke-width="13.3" stroke-linecap="round"/><line x1="224.2" y1="224.2" x2="307.8" y2="224.2" stroke="#888888" stroke-width="13.3" stroke-linecap="round"/><line x1="307.8" y1="224.2" x2="391.4" y2="224.2" stroke="#888888" stroke-width="13.3" stroke-linecap="round"/><line x1="391.4" y1="307.8" x2="307.8" y2="307.8" stroke="#888888" stroke-width="13.3" stroke-linecap="round"/><line x1="391.4" y1="307.8" x2="391.4" y2="391.4" stroke="#888888" stroke-width="13.3" stroke-linecap="round"/><line x1="307.8" y1="307.8" x2="224.2" y2="307.8" stroke="#888888" stroke-width="13.3" stroke-linecap="round"/><line x1="307.8" y1="307.8" x2="307.8" y2="391.4" stroke="#888888" stroke-width="13.3" stroke-linecap="round"/><line x1="224.2" y1="307.8" x2="140.6" y2="307.8" stroke="#888888" stroke-width="13.3" stroke-linecap="round"/><line x1="224.2" y1="307.8" x2="224.2" y2="391.4" stroke="#888888" stroke-width="13.3" stroke-linecap="round"/><line x1="140.6" y1="307.8" x2="57.0" y2="307.8" stroke="#888888" stroke-width="13.3" stroke-linecap="round"/><line x1="140.6" y1="307.8" x2="140.6" y2="391.4" stroke="#888888" stroke-width="13.3" stroke-linecap="round"/><line x1="57.0" y1="307.8" x2="57.0" y2="391.4" stroke="#888888" stroke-width="13.3" stroke-linecap="round"/><line x1="57.0" y1="391.4" x2="140.6" y2="391.4" stroke="#888888" stroke-width="13.3" stroke-linecap="round"/><line x1="140.6" y1="391.4" x2="224.2" y2="391.4" stroke="#888888" stroke-width="13.3" stroke-linecap="round"/><line x1="224.2" y1="391.4" x2="307.8" y2="391.4" stroke="#888888" stroke-width="13.3" stroke-linecap="round"/><line x1="307.8" y1="391.4" x2="391.4" y2="391.4" stroke="#888888" stroke-width="13.3" stroke-linecap="round"/><line x1="391.4" y1="475.0" x2="307.8" y2="475.0" stroke="#888888" stroke-width="13.3" stroke-linecap="round"/><line x1="391.4" y1="475.0" x2="391.4" y2="558.6" stroke="#888888" stroke-width="13.3" stroke-linecap="round"/><line x1="307.8" y1="475.0" x2="224.2" y2="475.0" stroke="#888888" stroke-width="13.3" stroke-linecap="round"/><line x1="307.8" y1="475.0" x2="307.8" y2="558.6" stroke="#888888" stroke-width="13.3" stroke-linecap="round"/><line x1="224.2" y1="475.0" x2="140.6" y2="475.0" stroke="#888888" stroke-width="13.3" stroke-linecap="round"/><line x1="224.2" y1="475.0" x2="224.2" y2="558.6" stroke="#888888" stroke-width="13.3" stroke-linecap="round"/><line x1="140.6" y1="475.0" x2="57.0" y2="475.0" stroke="#888888" stroke-width="13.3" stroke-linecap="round"/><line x1="140.6" y1="475.0" x2="140.6" y2="558.6" stroke="#888888" stroke-width="13.3" stroke-linecap="round"/><line x1="57.0" y1="475.0" x2="57.0" y2="558.6" stroke="#888888" stroke-width="13.3" stroke-linecap="round"/><line x1="57.0" y1="558.6" x2="140.6" y2="558.6" stroke="#888888" stroke-width="13.3" stroke-linecap="round"/><line x1="140.6" y1="558.6" x2="224.2" y2="558.6" stroke="#888888" stroke-width="13.3" stroke-linecap="round"/><line x1="224.2" y1="558.6" x2="307.8" y2="558.6" stroke="#888888" stroke-width="13.3" stroke-linecap="round"/><line x1="307.8" y1="558.6" x2="391.4" y2="558.6" stroke="#888888" stroke-width="13.3" stroke-linecap="round"/><line x1="391.4" y1="642.2" x2="307.8" y2="642.2" stroke="#888888" stroke-width="13.3" stroke-linecap="round"/><line x1="391.4" y1="642.2" x2="391.4" y2="725.8" stroke="#888888" stroke-width="13.3" stroke-linecap="round"/><line x1="307.8" y1="642.2" x2="224.2" y2="642.2" stroke="#888888" stroke-width="13.3" stroke-linecap="round"/><line x1="307.8" y1="642.2" x2="307.8" y2="725.8" stroke="#888888" stroke-width="13.3" stroke-linecap="round"/><line x1="224.2" y1="642.2" x2="140.6" y2="642.2" stroke="#888888" stroke-width="13.3" stroke-linecap="round"/><line x1="224.2" y1="642.2" x2="224.2" y2="725.8" stroke="#888888" stroke-width="13.3" stroke-linecap="round"/><line x1="140.6" y1="642.2" x2="57.0" y2="642.2" stroke="#888888" stroke-width="13.3" stroke-linecap="round"/><line x1="140.6" y1="642.2" x2="140.6" y2="725.8" stroke="#888888" stroke-width="13.3" stroke-linecap="round"/><line x1="57.0" y1="642.2" x2="57.0" y2="725.8" stroke="#888888" stroke-width="13.3" stroke-linecap="round"/><line x1="57.0" y1="725.8" x2="140.6" y2="725.8" stroke="#888888" stroke-width="13.3" stroke-linecap="round"/><line x1="140.6" y1="725.8" x2="224.2" y2="725.8" stroke="#888888" stroke-width="13.3" stroke-linecap="round"/><line x1="224.2" y1="725.8" x2="307.8" y2="725.8" stroke="#888888" stroke-width="13.3" stroke-linecap="round"/><line x1="307.8" y1="725.8" x2="391.4" y2="725.8" stroke="#888888" stroke-width="13.3" stroke-linecap="round"/><line x1="391.4" y1="809.4" x2="307.8" y2="809.4" stroke="#888888" stroke-width="13.3" stroke-linecap="round"/><line x1="307.8" y1="809.4" x2="224.2" y2="809.4" stroke="#888888" stroke-width="13.3" stroke-linecap="round"/><line x1="224.2" y1="809.4" x2="140.6" y2="809.4" stroke="#888888" stroke-width="13.3" stroke-linecap="round"/><line x1="140.6" y1="809.4" x2="57.0" y2="809.4" stroke="#888888" stroke-width="13.3" stroke-linecap="round"/><circle cx="57" cy="57" r="41.8" fill="none" stroke="#C0392B" stroke-width="3.34"/>
<circle cx="57" cy="57" r="19.00" fill="#C0392B"/><circle cx="140.6" cy="57" r="41.8" fill="none" stroke="#C0392B" stroke-width="3.34"/>
<circle cx="140.6" cy="57" r="19.00" fill="#C0392B"/><circle cx="224.2" cy="57" r="41.8" fill="none" stroke="#C0392B" stroke-width="3.34"/>
<circle cx="224.2" cy="57" r="19.00" fill="#C0392B"/><circle cx="307.8" cy="57" r="41.8" fill="none" stroke="#C0392B" stroke-width="3.34"/>
<circle cx="307.8" cy="57" r="19.00" fill="#C0392B"/><circle cx="391.4" cy="57" r="41.8" fill="none" stroke="#C0392B" stroke-width="3.34"/>
<circle cx="391.4" cy="57" r="19.00" fill="#C0392B"/><circle cx="391.4" cy="140.6" r="41.8" fill="none" stroke="#1a1a1a" stroke-width="3.34"/>
<circle cx="391.4" cy="140.6" r="10.45" fill="#1a1a1a"/><circle cx="307.8" cy="140.6" r="41.8" fill="none" stroke="#1a1a1a" stroke-width="3.34"/>
<circle cx="307.8" cy="140.6" r="10.45" fill="#1a1a1a"/><circle cx="224.2" cy="140.6" r="41.8" fill="none" stroke="#1a1a1a" stroke-width="3.34"/>
<circle cx="224.2" cy="140.6" r="10.45" fill="#1a1a1a"/><circle cx="140.6" cy="140.6" r="41.8" fill="none" stroke="#1a1a1a" stroke-width="3.34"/>
<circle cx="140.6" cy="140.6" r="10.45" fill="#1a1a1a"/><circle cx="57" cy="140.6" r="41.8" fill="none" stroke="#1a1a1a" stroke-width="3.34"/>
<circle cx="57" cy="140.6" r="10.45" fill="#1a1a1a"/><circle cx="57" cy="224.2" r="41.8" fill="none" stroke="#C0392B" stroke-width="3.34"/>
<circle cx="57" cy="224.2" r="19.00" fill="#C0392B"/><circle cx="140.6" cy="224.2" r="41.8" fill="none" stroke="#C0392B" stroke-width="3.34"/>
<circle cx="140.6" cy="224.2" r="19.00" fill="#C0392B"/><circle cx="224.2" cy="224.2" r="41.8" fill="none" stroke="#C0392B" stroke-width="3.34"/>
<circle cx="224.2" cy="224.2" r="19.00" fill="#C0392B"/><circle cx="307.8" cy="224.2" r="41.8" fill="none" stroke="#C0392B" stroke-width="3.34"/>
<circle cx="307.8" cy="224.2" r="19.00" fill="#C0392B"/><circle cx="391.4" cy="224.2" r="41.8" fill="none" stroke="#C0392B" stroke-width="3.34"/>
<circle cx="391.4" cy="224.2" r="19.00" fill="#C0392B"/><circle cx="391.4" cy="307.8" r="41.8" fill="none" stroke="#1a1a1a" stroke-width="3.34"/>
<circle cx="391.4" cy="307.8" r="10.45" fill="#1a1a1a"/><circle cx="307.8" cy="307.8" r="41.8" fill="none" stroke="#1a1a1a" stroke-width="3.34"/>
<circle cx="307.8" cy="307.8" r="10.45" fill="#1a1a1a"/><circle cx="224.2" cy="307.8" r="41.8" fill="none" stroke="#1a1a1a" stroke-width="3.34"/>
<circle cx="224.2" cy="307.8" r="10.45" fill="#1a1a1a"/><circle cx="140.6" cy="307.8" r="41.8" fill="none" stroke="#1a1a1a" stroke-width="3.34"/>
<circle cx="140.6" cy="307.8" r="10.45" fill="#1a1a1a"/><circle cx="57" cy="307.8" r="41.8" fill="none" stroke="#1a1a1a" stroke-width="3.34"/>
<circle cx="57" cy="307.8" r="10.45" fill="#1a1a1a"/><circle cx="57" cy="391.4" r="41.8" fill="none" stroke="#C0392B" stroke-width="3.34"/>
<circle cx="57" cy="391.4" r="19.00" fill="#C0392B"/><circle cx="140.6" cy="391.4" r="41.8" fill="none" stroke="#C0392B" stroke-width="3.34"/>
<circle cx="140.6" cy="391.4" r="19.00" fill="#C0392B"/><circle cx="224.2" cy="391.4" r="41.8" fill="none" stroke="#C0392B" stroke-width="3.34"/>
<circle cx="224.2" cy="391.4" r="19.00" fill="#C0392B"/><circle cx="307.8" cy="391.4" r="41.8" fill="none" stroke="#C0392B" stroke-width="3.34"/>
<circle cx="307.8" cy="391.4" r="19.00" fill="#C0392B"/><circle cx="391.4" cy="391.4" r="41.8" fill="none" stroke="#C0392B" stroke-width="3.34"/>
<circle cx="391.4" cy="391.4" r="19.00" fill="#C0392B"/><circle cx="391.4" cy="475" r="41.8" fill="none" stroke="#1a1a1a" stroke-width="3.34"/>
<circle cx="391.4" cy="475" r="10.45" fill="#1a1a1a"/><circle cx="307.8" cy="475" r="41.8" fill="none" stroke="#1a1a1a" stroke-width="3.34"/>
<circle cx="307.8" cy="475" r="10.45" fill="#1a1a1a"/><circle cx="224.2" cy="475" r="41.8" fill="none" stroke="#1a1a1a" stroke-width="3.34"/>
<circle cx="224.2" cy="475" r="10.45" fill="#1a1a1a"/><circle cx="140.6" cy="475" r="41.8" fill="none" stroke="#1a1a1a" stroke-width="3.34"/>
<circle cx="140.6" cy="475" r="10.45" fill="#1a1a1a"/><circle cx="57" cy="475" r="41.8" fill="none" stroke="#1a1a1a" stroke-width="3.34"/>
<circle cx="57" cy="475" r="10.45" fill="#1a1a1a"/><circle cx="57" cy="558.5999999999999" r="41.8" fill="none" stroke="#C0392B" stroke-width="3.34"/>
<circle cx="57" cy="558.5999999999999" r="19.00" fill="#C0392B"/><circle cx="140.6" cy="558.5999999999999" r="41.8" fill="none" stroke="#C0392B" stroke-width="3.34"/>
<circle cx="140.6" cy="558.5999999999999" r="19.00" fill="#C0392B"/><circle cx="224.2" cy="558.5999999999999" r="41.8" fill="none" stroke="#C0392B" stroke-width="3.34"/>
<circle cx="224.2" cy="558.5999999999999" r="19.00" fill="#C0392B"/><circle cx="307.8" cy="558.5999999999999" r="41.8" fill="none" stroke="#C0392B" stroke-width="3.34"/>
<circle cx="307.8" cy="558.5999999999999" r="19.00" fill="#C0392B"/><circle cx="391.4" cy="558.5999999999999" r="41.8" fill="none" stroke="#C0392B" stroke-width="3.34"/>
<circle cx="391.4" cy="558.5999999999999" r="19.00" fill="#C0392B"/><circle cx="391.4" cy="642.1999999999999" r="41.8" fill="none" stroke="#1a1a1a" stroke-width="3.34"/>
<circle cx="391.4" cy="642.1999999999999" r="10.45" fill="#1a1a1a"/><circle cx="307.8" cy="642.1999999999999" r="41.8" fill="none" stroke="#1a1a1a" stroke-width="3.34"/>
<circle cx="307.8" cy="642.1999999999999" r="10.45" fill="#1a1a1a"/><circle cx="224.2" cy="642.1999999999999" r="41.8" fill="none" stroke="#1a1a1a" stroke-width="3.34"/>
<circle cx="224.2" cy="642.1999999999999" r="10.45" fill="#1a1a1a"/><circle cx="140.6" cy="642.1999999999999" r="41.8" fill="none" stroke="#1a1a1a" stroke-width="3.34"/>
<circle cx="140.6" cy="642.1999999999999" r="10.45" fill="#1a1a1a"/><circle cx="57" cy="642.1999999999999" r="41.8" fill="none" stroke="#1a1a1a" stroke-width="3.34"/>
<circle cx="57" cy="642.1999999999999" r="10.45" fill="#1a1a1a"/><circle cx="57" cy="725.8" r="41.8" fill="none" stroke="#C0392B" stroke-width="3.34"/>
<circle cx="57" cy="725.8" r="19.00" fill="#C0392B"/><circle cx="140.6" cy="725.8" r="41.8" fill="none" stroke="#C0392B" stroke-width="3.34"/>
<circle cx="140.6" cy="725.8" r="19.00" fill="#C0392B"/><circle cx="224.2" cy="725.8" r="41.8" fill="none" stroke="#C0392B" stroke-width="3.34"/>
<circle cx="224.2" cy="725.8" r="19.00" fill="#C0392B"/><circle cx="307.8" cy="725.8" r="41.8" fill="none" stroke="#C0392B" stroke-width="3.34"/>
<circle cx="307.8" cy="725.8" r="19.00" fill="#C0392B"/><circle cx="391.4" cy="725.8" r="41.8" fill="none" stroke="#C0392B" stroke-width="3.34"/>
<circle cx="391.4" cy="725.8" r="19.00" fill="#C0392B"/><circle cx="391.4" cy="809.4" r="41.8" fill="none" stroke="#1a1a1a" stroke-width="3.34"/>
<circle cx="391.4" cy="809.4" r="10.45" fill="#1a1a1a"/><circle cx="307.8" cy="809.4" r="41.8" fill="none" stroke="#1a1a1a" stroke-width="3.34"/>
<circle cx="307.8" cy="809.4" r="10.45" fill="#1a1a1a"/><circle cx="224.2" cy="809.4" r="41.8" fill="none" stroke="#1a1a1a" stroke-width="3.34"/>
<circle cx="224.2" cy="809.4" r="10.45" fill="#1a1a1a"/><circle cx="140.6" cy="809.4" r="41.8" fill="none" stroke="#1a1a1a" stroke-width="3.34"/>
<circle cx="140.6" cy="809.4" r="10.45" fill="#1a1a1a"/><circle cx="57" cy="809.4" r="41.8" fill="none" stroke="#1a1a1a" stroke-width="3.34"/>
<circle cx="57" cy="809.4" r="10.45" fill="#1a1a1a"/><circle cx="57.0" cy="57.0" r="9.3" fill="#C0392B" stroke="#7B241C" stroke-width="1"/><text font-family="Arial" font-size="11" font-weight="bold" fill="#ffffff" text-anchor="middle" x="57.0" y="61.0">B+</text><circle cx="57.0" cy="809.4" r="9.3" fill="#0C447C" stroke="#042C53" stroke-width="1"/><text font-family="Arial" font-size="11" font-weight="bold" fill="#ffffff" text-anchor="middle" x="57.0" y="813.4">B-</text></g>
<line x1="20" y1="902.4" x2="428.4" y2="902.4" stroke="#cccccc" stroke-width="1" stroke-dasharray="4 3"/>
<text font-family="Arial" font-size="12" fill="#5F5E5A" text-anchor="middle" x="224.2" y="916.4">bottom face</text>
<g transform="translate(0,914.4)"><line x1="57.0" y1="57.0" x2="140.6" y2="57.0" stroke="#888888" stroke-width="13.3" stroke-linecap="round"/><line x1="57.0" y1="57.0" x2="57.0" y2="140.6" stroke="#888888" stroke-width="13.3" stroke-linecap="round"/><line x1="140.6" y1="57.0" x2="224.2" y2="57.0" stroke="#888888" stroke-width="13.3" stroke-linecap="round"/><line x1="140.6" y1="57.0" x2="140.6" y2="140.6" stroke="#888888" stroke-width="13.3" stroke-linecap="round"/><line x1="224.2" y1="57.0" x2="307.8" y2="57.0" stroke="#888888" stroke-width="13.3" stroke-linecap="round"/><line x1="224.2" y1="57.0" x2="224.2" y2="140.6" stroke="#888888" stroke-width="13.3" stroke-linecap="round"/><line x1="307.8" y1="57.0" x2="391.4" y2="57.0" stroke="#888888" stroke-width="13.3" stroke-linecap="round"/><line x1="307.8" y1="57.0" x2="307.8" y2="140.6" stroke="#888888" stroke-width="13.3" stroke-linecap="round"/><line x1="391.4" y1="57.0" x2="391.4" y2="140.6" stroke="#888888" stroke-width="13.3" stroke-linecap="round"/><line x1="391.4" y1="140.6" x2="307.8" y2="140.6" stroke="#888888" stroke-width="13.3" stroke-linecap="round"/><line x1="307.8" y1="140.6" x2="224.2" y2="140.6" stroke="#888888" stroke-width="13.3" stroke-linecap="round"/><line x1="224.2" y1="140.6" x2="140.6" y2="140.6" stroke="#888888" stroke-width="13.3" stroke-linecap="round"/><line x1="140.6" y1="140.6" x2="57.0" y2="140.6" stroke="#888888" stroke-width="13.3" stroke-linecap="round"/><line x1="57.0" y1="224.2" x2="140.6" y2="224.2" stroke="#888888" stroke-width="13.3" stroke-linecap="round"/><line x1="57.0" y1="224.2" x2="57.0" y2="307.8" stroke="#888888" stroke-width="13.3" stroke-linecap="round"/><line x1="140.6" y1="224.2" x2="224.2" y2="224.2" stroke="#888888" stroke-width="13.3" stroke-linecap="round"/><line x1="140.6" y1="224.2" x2="140.6" y2="307.8" stroke="#888888" stroke-width="13.3" stroke-linecap="round"/><line x1="224.2" y1="224.2" x2="307.8" y2="224.2" stroke="#888888" stroke-width="13.3" stroke-linecap="round"/><line x1="224.2" y1="224.2" x2="224.2" y2="307.8" stroke="#888888" stroke-width="13.3" stroke-linecap="round"/><line x1="307.8" y1="224.2" x2="391.4" y2="224.2" stroke="#888888" stroke-width="13.3" stroke-linecap="round"/><line x1="307.8" y1="224.2" x2="307.8" y2="307.8" stroke="#888888" stroke-width="13.3" stroke-linecap="round"/><line x1="391.4" y1="224.2" x2="391.4" y2="307.8" stroke="#888888" stroke-width="13.3" stroke-linecap="round"/><line x1="391.4" y1="307.8" x2="307.8" y2="307.8" stroke="#888888" stroke-width="13.3" stroke-linecap="round"/><line x1="307.8" y1="307.8" x2="224.2" y2="307.8" stroke="#888888" stroke-width="13.3" stroke-linecap="round"/><line x1="224.2" y1="307.8" x2="140.6" y2="307.8" stroke="#888888" stroke-width="13.3" stroke-linecap="round"/><line x1="140.6" y1="307.8" x2="57.0" y2="307.8" stroke="#888888" stroke-width="13.3" stroke-linecap="round"/><line x1="57.0" y1="391.4" x2="140.6" y2="391.4" stroke="#888888" stroke-width="13.3" stroke-linecap="round"/><line x1="57.0" y1="391.4" x2="57.0" y2="475.0" stroke="#888888" stroke-width="13.3" stroke-linecap="round"/><line x1="140.6" y1="391.4" x2="224.2" y2="391.4" stroke="#888888" stroke-width="13.3" stroke-linecap="round"/><line x1="140.6" y1="391.4" x2="140.6" y2="475.0" stroke="#888888" stroke-width="13.3" stroke-linecap="round"/><line x1="224.2" y1="391.4" x2="307.8" y2="391.4" stroke="#888888" stroke-width="13.3" stroke-linecap="round"/><line x1="224.2" y1="391.4" x2="224.2" y2="475.0" stroke="#888888" stroke-width="13.3" stroke-linecap="round"/><line x1="307.8" y1="391.4" x2="391.4" y2="391.4" stroke="#888888" stroke-width="13.3" stroke-linecap="round"/><line x1="307.8" y1="391.4" x2="307.8" y2="475.0" stroke="#888888" stroke-width="13.3" stroke-linecap="round"/><line x1="391.4" y1="391.4" x2="391.4" y2="475.0" stroke="#888888" stroke-width="13.3" stroke-linecap="round"/><line x1="391.4" y1="475.0" x2="307.8" y2="475.0" stroke="#888888" stroke-width="13.3" stroke-linecap="round"/><line x1="307.8" y1="475.0" x2="224.2" y2="475.0" stroke="#888888" stroke-width="13.3" stroke-linecap="round"/><line x1="224.2" y1="475.0" x2="140.6" y2="475.0" stroke="#888888" stroke-width="13.3" stroke-linecap="round"/><line x1="140.6" y1="475.0" x2="57.0" y2="475.0" stroke="#888888" stroke-width="13.3" stroke-linecap="round"/><line x1="57.0" y1="558.6" x2="140.6" y2="558.6" stroke="#888888" stroke-width="13.3" stroke-linecap="round"/><line x1="57.0" y1="558.6" x2="57.0" y2="642.2" stroke="#888888" stroke-width="13.3" stroke-linecap="round"/><line x1="140.6" y1="558.6" x2="224.2" y2="558.6" stroke="#888888" stroke-width="13.3" stroke-linecap="round"/><line x1="140.6" y1="558.6" x2="140.6" y2="642.2" stroke="#888888" stroke-width="13.3" stroke-linecap="round"/><line x1="224.2" y1="558.6" x2="307.8" y2="558.6" stroke="#888888" stroke-width="13.3" stroke-linecap="round"/><line x1="224.2" y1="558.6" x2="224.2" y2="642.2" stroke="#888888" stroke-width="13.3" stroke-linecap="round"/><line x1="307.8" y1="558.6" x2="391.4" y2="558.6" stroke="#888888" stroke-width="13.3" stroke-linecap="round"/><line x1="307.8" y1="558.6" x2="307.8" y2="642.2" stroke="#888888" stroke-width="13.3" stroke-linecap="round"/><line x1="391.4" y1="558.6" x2="391.4" y2="642.2" stroke="#888888" stroke-width="13.3" stroke-linecap="round"/><line x1="391.4" y1="642.2" x2="307.8" y2="642.2" stroke="#888888" stroke-width="13.3" stroke-linecap="round"/><line x1="307.8" y1="642.2" x2="224.2" y2="642.2" stroke="#888888" stroke-width="13.3" stroke-linecap="round"/><line x1="224.2" y1="642.2" x2="140.6" y2="642.2" stroke="#888888" stroke-width="13.3" stroke-linecap="round"/><line x1="140.6" y1="642.2" x2="57.0" y2="642.2" stroke="#888888" stroke-width="13.3" stroke-linecap="round"/><line x1="57.0" y1="725.8" x2="140.6" y2="725.8" stroke="#888888" stroke-width="13.3" stroke-linecap="round"/><line x1="57.0" y1="725.8" x2="57.0" y2="809.4" stroke="#888888" stroke-width="13.3" stroke-linecap="round"/><line x1="140.6" y1="725.8" x2="224.2" y2="725.8" stroke="#888888" stroke-width="13.3" stroke-linecap="round"/><line x1="140.6" y1="725.8" x2="140.6" y2="809.4" stroke="#888888" stroke-width="13.3" stroke-linecap="round"/><line x1="224.2" y1="725.8" x2="307.8" y2="725.8" stroke="#888888" stroke-width="13.3" stroke-linecap="round"/><line x1="224.2" y1="725.8" x2="224.2" y2="809.4" stroke="#888888" stroke-width="13.3" stroke-linecap="round"/><line x1="307.8" y1="725.8" x2="391.4" y2="725.8" stroke="#888888" stroke-width="13.3" stroke-linecap="round"/><line x1="307.8" y1="725.8" x2="307.8" y2="809.4" stroke="#888888" stroke-width="13.3" stroke-linecap="round"/><line x1="391.4" y1="725.8" x2="391.4" y2="809.4" stroke="#888888" stroke-width="13.3" stroke-linecap="round"/><line x1="391.4" y1="809.4" x2="307.8" y2="809.4" stroke="#888888" stroke-width="13.3" stroke-linecap="round"/><line x1="307.8" y1="809.4" x2="224.2" y2="809.4" stroke="#888888" stroke-width="13.3" stroke-linecap="round"/><line x1="224.2" y1="809.4" x2="140.6" y2="809.4" stroke="#888888" stroke-width="13.3" stroke-linecap="round"/><line x1="140.6" y1="809.4" x2="57.0" y2="809.4" stroke="#888888" stroke-width="13.3" stroke-linecap="round"/><circle cx="57" cy="57" r="41.8" fill="none" stroke="#1a1a1a" stroke-width="3.34"/>
<circle cx="57" cy="57" r="10.45" fill="#1a1a1a"/><circle cx="140.6" cy="57" r="41.8" fill="none" stroke="#1a1a1a" stroke-width="3.34"/>
<circle cx="140.6" cy="57" r="10.45" fill="#1a1a1a"/><circle cx="224.2" cy="57" r="41.8" fill="none" stroke="#1a1a1a" stroke-width="3.34"/>
<circle cx="224.2" cy="57" r="10.45" fill="#1a1a1a"/><circle cx="307.8" cy="57" r="41.8" fill="none" stroke="#1a1a1a" stroke-width="3.34"/>
<circle cx="307.8" cy="57" r="10.45" fill="#1a1a1a"/><circle cx="391.4" cy="57" r="41.8" fill="none" stroke="#1a1a1a" stroke-width="3.34"/>
<circle cx="391.4" cy="57" r="10.45" fill="#1a1a1a"/><circle cx="391.4" cy="140.6" r="41.8" fill="none" stroke="#C0392B" stroke-width="3.34"/>
<circle cx="391.4" cy="140.6" r="19.00" fill="#C0392B"/><circle cx="307.8" cy="140.6" r="41.8" fill="none" stroke="#C0392B" stroke-width="3.34"/>
<circle cx="307.8" cy="140.6" r="19.00" fill="#C0392B"/><circle cx="224.2" cy="140.6" r="41.8" fill="none" stroke="#C0392B" stroke-width="3.34"/>
<circle cx="224.2" cy="140.6" r="19.00" fill="#C0392B"/><circle cx="140.6" cy="140.6" r="41.8" fill="none" stroke="#C0392B" stroke-width="3.34"/>
<circle cx="140.6" cy="140.6" r="19.00" fill="#C0392B"/><circle cx="57" cy="140.6" r="41.8" fill="none" stroke="#C0392B" stroke-width="3.34"/>
<circle cx="57" cy="140.6" r="19.00" fill="#C0392B"/><circle cx="57" cy="224.2" r="41.8" fill="none" stroke="#1a1a1a" stroke-width="3.34"/>
<circle cx="57" cy="224.2" r="10.45" fill="#1a1a1a"/><circle cx="140.6" cy="224.2" r="41.8" fill="none" stroke="#1a1a1a" stroke-width="3.34"/>
<circle cx="140.6" cy="224.2" r="10.45" fill="#1a1a1a"/><circle cx="224.2" cy="224.2" r="41.8" fill="none" stroke="#1a1a1a" stroke-width="3.34"/>
<circle cx="224.2" cy="224.2" r="10.45" fill="#1a1a1a"/><circle cx="307.8" cy="224.2" r="41.8" fill="none" stroke="#1a1a1a" stroke-width="3.34"/>
<circle cx="307.8" cy="224.2" r="10.45" fill="#1a1a1a"/><circle cx="391.4" cy="224.2" r="41.8" fill="none" stroke="#1a1a1a" stroke-width="3.34"/>
<circle cx="391.4" cy="224.2" r="10.45" fill="#1a1a1a"/><circle cx="391.4" cy="307.8" r="41.8" fill="none" stroke="#C0392B" stroke-width="3.34"/>
<circle cx="391.4" cy="307.8" r="19.00" fill="#C0392B"/><circle cx="307.8" cy="307.8" r="41.8" fill="none" stroke="#C0392B" stroke-width="3.34"/>
<circle cx="307.8" cy="307.8" r="19.00" fill="#C0392B"/><circle cx="224.2" cy="307.8" r="41.8" fill="none" stroke="#C0392B" stroke-width="3.34"/>
<circle cx="224.2" cy="307.8" r="19.00" fill="#C0392B"/><circle cx="140.6" cy="307.8" r="41.8" fill="none" stroke="#C0392B" stroke-width="3.34"/>
<circle cx="140.6" cy="307.8" r="19.00" fill="#C0392B"/><circle cx="57" cy="307.8" r="41.8" fill="none" stroke="#C0392B" stroke-width="3.34"/>
<circle cx="57" cy="307.8" r="19.00" fill="#C0392B"/><circle cx="57" cy="391.4" r="41.8" fill="none" stroke="#1a1a1a" stroke-width="3.34"/>
<circle cx="57" cy="391.4" r="10.45" fill="#1a1a1a"/><circle cx="140.6" cy="391.4" r="41.8" fill="none" stroke="#1a1a1a" stroke-width="3.34"/>
<circle cx="140.6" cy="391.4" r="10.45" fill="#1a1a1a"/><circle cx="224.2" cy="391.4" r="41.8" fill="none" stroke="#1a1a1a" stroke-width="3.34"/>
<circle cx="224.2" cy="391.4" r="10.45" fill="#1a1a1a"/><circle cx="307.8" cy="391.4" r="41.8" fill="none" stroke="#1a1a1a" stroke-width="3.34"/>
<circle cx="307.8" cy="391.4" r="10.45" fill="#1a1a1a"/><circle cx="391.4" cy="391.4" r="41.8" fill="none" stroke="#1a1a1a" stroke-width="3.34"/>
<circle cx="391.4" cy="391.4" r="10.45" fill="#1a1a1a"/><circle cx="391.4" cy="475" r="41.8" fill="none" stroke="#C0392B" stroke-width="3.34"/>
<circle cx="391.4" cy="475" r="19.00" fill="#C0392B"/><circle cx="307.8" cy="475" r="41.8" fill="none" stroke="#C0392B" stroke-width="3.34"/>
<circle cx="307.8" cy="475" r="19.00" fill="#C0392B"/><circle cx="224.2" cy="475" r="41.8" fill="none" stroke="#C0392B" stroke-width="3.34"/>
<circle cx="224.2" cy="475" r="19.00" fill="#C0392B"/><circle cx="140.6" cy="475" r="41.8" fill="none" stroke="#C0392B" stroke-width="3.34"/>
<circle cx="140.6" cy="475" r="19.00" fill="#C0392B"/><circle cx="57" cy="475" r="41.8" fill="none" stroke="#C0392B" stroke-width="3.34"/>
<circle cx="57" cy="475" r="19.00" fill="#C0392B"/><circle cx="57" cy="558.5999999999999" r="41.8" fill="none" stroke="#1a1a1a" stroke-width="3.34"/>
<circle cx="57" cy="558.5999999999999" r="10.45" fill="#1a1a1a"/><circle cx="140.6" cy="558.5999999999999" r="41.8" fill="none" stroke="#1a1a1a" stroke-width="3.34"/>
<circle cx="140.6" cy="558.5999999999999" r="10.45" fill="#1a1a1a"/><circle cx="224.2" cy="558.5999999999999" r="41.8" fill="none" stroke="#1a1a1a" stroke-width="3.34"/>
<circle cx="224.2" cy="558.5999999999999" r="10.45" fill="#1a1a1a"/><circle cx="307.8" cy="558.5999999999999" r="41.8" fill="none" stroke="#1a1a1a" stroke-width="3.34"/>
<circle cx="307.8" cy="558.5999999999999" r="10.45" fill="#1a1a1a"/><circle cx="391.4" cy="558.5999999999999" r="41.8" fill="none" stroke="#1a1a1a" stroke-width="3.34"/>
<circle cx="391.4" cy="558.5999999999999" r="10.45" fill="#1a1a1a"/><circle cx="391.4" cy="642.1999999999999" r="41.8" fill="none" stroke="#C0392B" stroke-width="3.34"/>
<circle cx="391.4" cy="642.1999999999999" r="19.00" fill="#C0392B"/><circle cx="307.8" cy="642.1999999999999" r="41.8" fill="none" stroke="#C0392B" stroke-width="3.34"/>
<circle cx="307.8" cy="642.1999999999999" r="19.00" fill="#C0392B"/><circle cx="224.2" cy="642.1999999999999" r="41.8" fill="none" stroke="#C0392B" stroke-width="3.34"/>
<circle cx="224.2" cy="642.1999999999999" r="19.00" fill="#C0392B"/><circle cx="140.6" cy="642.1999999999999" r="41.8" fill="none" stroke="#C0392B" stroke-width="3.34"/>
<circle cx="140.6" cy="642.1999999999999" r="19.00" fill="#C0392B"/><circle cx="57" cy="642.1999999999999" r="41.8" fill="none" stroke="#C0392B" stroke-width="3.34"/>
<circle cx="57" cy="642.1999999999999" r="19.00" fill="#C0392B"/><circle cx="57" cy="725.8" r="41.8" fill="none" stroke="#1a1a1a" stroke-width="3.34"/>
<circle cx="57" cy="725.8" r="10.45" fill="#1a1a1a"/><circle cx="140.6" cy="725.8" r="41.8" fill="none" stroke="#1a1a1a" stroke-width="3.34"/>
<circle cx="140.6" cy="725.8" r="10.45" fill="#1a1a1a"/><circle cx="224.2" cy="725.8" r="41.8" fill="none" stroke="#1a1a1a" stroke-width="3.34"/>
<circle cx="224.2" cy="725.8" r="10.45" fill="#1a1a1a"/><circle cx="307.8" cy="725.8" r="41.8" fill="none" stroke="#1a1a1a" stroke-width="3.34"/>
<circle cx="307.8" cy="725.8" r="10.45" fill="#1a1a1a"/><circle cx="391.4" cy="725.8" r="41.8" fill="none" stroke="#1a1a1a" stroke-width="3.34"/>
<circle cx="391.4" cy="725.8" r="10.45" fill="#1a1a1a"/><circle cx="391.4" cy="809.4" r="41.8" fill="none" stroke="#C0392B" stroke-width="3.34"/>
<circle cx="391.4" cy="809.4" r="19.00" fill="#C0392B"/><circle cx="307.8" cy="809.4" r="41.8" fill="none" stroke="#C0392B" stroke-width="3.34"/>
<circle cx="307.8" cy="809.4" r="19.00" fill="#C0392B"/><circle cx="224.2" cy="809.4" r="41.8" fill="none" stroke="#C0392B" stroke-width="3.34"/>
<circle cx="224.2" cy="809.4" r="19.00" fill="#C0392B"/><circle cx="140.6" cy="809.4" r="41.8" fill="none" stroke="#C0392B" stroke-width="3.34"/>
<circle cx="140.6" cy="809.4" r="19.00" fill="#C0392B"/><circle cx="57" cy="809.4" r="41.8" fill="none" stroke="#C0392B" stroke-width="3.34"/>
<circle cx="57" cy="809.4" r="19.00" fill="#C0392B"/></g>
<text font-family="Arial" font-size="8" fill="#27AE60" text-anchor="middle" x="224.2" y="1800.8">v0.3.2-unified · custom · rows=[5,5,5,5,5,5,5,5,5,5] · N=50 · 10S</text>
</svg>