<svg xmlns="http://www.w3.org/2000/svg" width="887" height="489" viewBox="0 0 887 489" font-family="Arial">
<rect width="100%" height="100%" fill="#f5f5f0"/>
<line x1="0" y1="0" x2="0" y2="489.0" stroke="#eaeaea" stroke-width="0.5"/>
<line x1="30" y1="0" x2="30" y2="489.0" stroke="#eaeaea" stroke-width="0.5"/>
<line x1="60" y1="0" x2="60" y2="489.0" stroke="#eaeaea" stroke-width="0.5"/>
<line x1="90" y1="0" x2="90" y2="489.0" stroke="#eaeaea" stroke-width="0.5"/>
<line x1="120" y1="0" x2="120" y2="489.0" stroke="#eaeaea" stroke-width="0.5"/>
<line x1="150" y1="0" x2="150" y2="489.0" stroke="#eaeaea" stroke-width="0.5"/>
<line x1="180" y1="0" x2="180" y2="489.0" stroke="#eaeaea" stroke-width="0.5"/>
<line x1="210" y1="0" x2="210" y2="489.0" stroke="#eaeaea" stroke-width="0.5"/>
<line x1="240" y1="0" x2="240" y2="489.0" stroke="#eaeaea" stroke-width="0.5"/>
<line x1="270" y1="0" x2="270" y2="489.0" stroke="#eaeaea" stroke-width="0.5"/>
<line x1="300" y1="0" x2="300" y2="489.0" stroke="#eaeaea" stroke-width="0.5"/>
<line x1="330" y1="0" x2="330" y2="489.0" stroke="#eaeaea" stroke-width="0.5"/>
<line x1="360" y1="0" x2="360" y2="489.0" stroke="#eaeaea" stroke-width="0.5"/>
<line x1="390" y1="0" x2="390" y2="489.0" stroke="#eaeaea" stroke-width="0.5"/>
<line x1="420" y1="0" x2="420" y2="489.0" stroke="#eaeaea" stroke-width="0.5"/>
<line x1="450" y1="0" x2="450" y2="489.0" stroke="#eaeaea" stroke-width="0.5"/>
<line x1="480" y1="0" x2="480" y2="489.0" stroke="#eaeaea" stroke-width="0.5"/>
<line x1="510" y1="0" x2="510" y2="489.0" stroke="#eaeaea" stroke-width="0.5"/>
<line x1="540" y1="0" x2="540" y2="489.0" stroke="#eaeaea" stroke-width="0.5"/>
<line x1="570" y1="0" x2="570" y2="489.0" stroke="#eaeaea" stroke-width="0.5"/>
<line x1="600" y1="0" x2="600" y2="489.0" stroke="#eaeaea" stroke-width="0.5"/>
<line x1="630" y1="0" x2="630" y2="489.0" stroke="#eaeaea" stroke-width="0.5"/>
<line x1="660" y1="0" x2="660" y2="489.0" stroke="#eaeaea" stroke-width="0.5"/>
<line x1="690" y1="0" x2="690" y2="489.0" stroke="#eaeaea" stroke-width="0.5"/>
<line x1="720" y1="0" x2="720" y2="489.0" stroke="#eaeaea" stroke-width="0.5"/>
<line x1="750" y1="0" x2="750" y2="489.0" stroke="#eaeaea" stroke-width="0.5"/>
<line x1="780" y1="0" x2="780" y2="489.0" stroke="#eaeaea" stroke-width="0.5"/>
<line x1="810" y1="0" x2="810" y2="489.0" stroke="#eaeaea" stroke-width="0.5"/>
<line x1="840" y1="0" x2="840" y2="489.0" stroke="#eaeaea" stroke-width="0.5"/>
<line x1="870" y1="0" x2="870" y2="489.0" stroke="#eaeaea" stroke-width="0.5"/>
<line x1="0" y1="0" x2="886.75" y2="0" stroke="#eaeaea" stroke-width="0.5"/>
<line x1="0" y1="30" x2="886.75" y2="30" stroke="#eaeaea" stroke-width="0.5"/>
<line x1="0" y1="60" x2="886.75" y2="60" stroke="#eaeaea" stroke-width="0.5"/>
<line x1="0" y1="90" x2="886.75" y2="90" stroke="#eaeaea" stroke-width="0.5"/>
<line x1="0" y1="120" x2="886.75" y2="120" stroke="#eaeaea" stroke-width="0.5"/>
<line x1="0" y1="150" x2="886.75" y2="150" stroke="#eaeaea" stroke-width="0.5"/>
<line x1="0" y1="180" x2="886.75" y2="180" stroke="#eaeaea" stroke-width="0.5"/>
<line x1="0" y1="210" x2="886.75" y2="210" stroke="#eaeaea" stroke-width="0.5"/>
<line x1="0" y1="240" x2="886.75" y2="240" stroke="#eaeaea" stroke-width="0.5"/>
<line x1="0" y1="270" x2="886.75" y2="270" stroke="#eaeaea" stroke-width="0.5"/>
<line x1="0" y1="300" x2="886.75" y2="300" stroke="#eaeaea" stroke-width="0.5"/>
<line x1="0" y1="330" x2="886.75" y2="330" stroke="#eaeaea" stroke-width="0.5"/>
<line x1="0" y1="360" x2="886.75" y2="360" stroke="#eaeaea" stroke-width="0.5"/>
<line x1="0" y1="390" x2="886.75" y2="390" stroke="#eaeaea" stroke-width="0.5"/>
<line x1="0" y1="420" x2="886.75" y2="420" stroke="#eaeaea" stroke-width="0.5"/>
<line x1="0" y1="450" x2="886.75" y2="450" stroke="#eaeaea" stroke-width="0.5"/>
<line x1="0" y1="480" x2="886.75" y2="480" stroke="#eaeaea" stroke-width="0.5"/>
<circle cx="370.2" cy="77.8" r="27.8" fill="#FFE4E1" stroke="#C0392B" stroke-width="1.2"/>
<circle cx="370.2" cy="77.8" r="15.0" fill="#C0392B"/>
<circle cx="428.8" cy="77.8" r="27.8" fill="#FFE4E1" stroke="#C0392B" stroke-width="1.2"/>
<circle cx="428.8" cy="77.8" r="15.0" fill="#C0392B"/>
<circle cx="487.2" cy="77.8" r="27.8" fill="#FFE4E1" stroke="#C0392B" stroke-width="1.2"/>
<circle cx="487.2" cy="77.8" r="15.0" fill="#C0392B"/>
<circle cx="545.8" cy="77.8" r="27.8" fill="#FFE4E1" stroke="#C0392B" stroke-width="1.2"/>
<circle cx="545.8" cy="77.8" r="15.0" fill="#C0392B"/>
<circle cx="604.2" cy="77.8" r="27.8" fill="#FFE4E1" stroke="#C0392B" stroke-width="1.2"/>
<circle cx="604.2" cy="77.8" r="15.0" fill="#C0392B"/>
<circle cx="662.8" cy="77.8" r="27.8" fill="#FFF" stroke="#000" stroke-width="1.2"/>
<circle cx="662.8" cy="77.8" r="6.1" fill="#000"/>
<circle cx="721.2" cy="77.8" r="27.8" fill="#FFF" stroke="#000" stroke-width="1.2"/>
<circle cx="721.2" cy="77.8" r="6.1" fill="#000"/>
<circle cx="779.8" cy="77.8" r="27.8" fill="#FFE4E1" stroke="#C0392B" stroke-width="1.2"/>
<circle cx="779.8" cy="77.8" r="15.0" fill="#C0392B"/>
<circle cx="399.5" cy="128.4" r="27.8" fill="#FFE4E1" stroke="#C0392B" stroke-width="1.2"/>
<circle cx="399.5" cy="128.4" r="15.0" fill="#C0392B"/>
<circle cx="458.0" cy="128.4" r="27.8" fill="#FFE4E1" stroke="#C0392B" stroke-width="1.2"/>
<circle cx="458.0" cy="128.4" r="15.0" fill="#C0392B"/>
<circle cx="516.5" cy="128.4" r="27.8" fill="#FFF" stroke="#000" stroke-width="1.2"/>
<circle cx="516.5" cy="128.4" r="6.1" fill="#000"/>
<circle cx="575.0" cy="128.4" r="27.8" fill="#FFF" stroke="#000" stroke-width="1.2"/>
<circle cx="575.0" cy="128.4" r="6.1" fill="#000"/>
<circle cx="633.5" cy="128.4" r="27.8" fill="#FFF" stroke="#000" stroke-width="1.2"/>
<circle cx="633.5" cy="128.4" r="6.1" fill="#000"/>
<circle cx="692.0" cy="128.4" r="27.8" fill="#FFF" stroke="#000" stroke-width="1.2"/>
<circle cx="692.0" cy="128.4" r="6.1" fill="#000"/>
<circle cx="750.5" cy="128.4" r="27.8" fill="#FFF" stroke="#000" stroke-width="1.2"/>
<circle cx="750.5" cy="128.4" r="6.1" fill="#000"/>
<circle cx="809.0" cy="128.4" r="27.8" fill="#FFE4E1" stroke="#C0392B" stroke-width="1.2"/>
<circle cx="809.0" cy="128.4" r="15.0" fill="#C0392B"/>
<circle cx="253.2" cy="179.1" r="27.8" fill="#FFF" stroke="#000" stroke-width="1.2"/>
<circle cx="253.2" cy="179.1" r="6.1" fill="#000"/>
<circle cx="311.8" cy="179.1" r="27.8" fill="#FFF" stroke="#000" stroke-width="1.2"/>
<circle cx="311.8" cy="179.1" r="6.1" fill="#000"/>
<circle cx="370.2" cy="179.1" r="27.8" fill="#FFE4E1" stroke="#C0392B" stroke-width="1.2"/>
<circle cx="370.2" cy="179.1" r="15.0" fill="#C0392B"/>
<circle cx="428.8" cy="179.1" r="27.8" fill="#FFE4E1" stroke="#C0392B" stroke-width="1.2"/>
<circle cx="428.8" cy="179.1" r="15.0" fill="#C0392B"/>
<circle cx="487.2" cy="179.1" r="27.8" fill="#FFE4E1" stroke="#C0392B" stroke-width="1.2"/>
<circle cx="487.2" cy="179.1" r="15.0" fill="#C0392B"/>
<circle cx="545.8" cy="179.1" r="27.8" fill="#FFF" stroke="#000" stroke-width="1.2"/>
<circle cx="545.8" cy="179.1" r="6.1" fill="#000"/>
<circle cx="604.2" cy="179.1" r="27.8" fill="#FFF" stroke="#000" stroke-width="1.2"/>
<circle cx="604.2" cy="179.1" r="6.1" fill="#000"/>
<circle cx="662.8" cy="179.1" r="27.8" fill="#FFE4E1" stroke="#C0392B" stroke-width="1.2"/>
<circle cx="662.8" cy="179.1" r="15.0" fill="#C0392B"/>
<circle cx="721.2" cy="179.1" r="27.8" fill="#FFE4E1" stroke="#C0392B" stroke-width="1.2"/>
<circle cx="721.2" cy="179.1" r="15.0" fill="#C0392B"/>
<circle cx="779.8" cy="179.1" r="27.8" fill="#FFE4E1" stroke="#C0392B" stroke-width="1.2"/>
<circle cx="779.8" cy="179.1" r="15.0" fill="#C0392B"/>
<circle cx="107.0" cy="229.8" r="27.8" fill="#FFE4E1" stroke="#C0392B" stroke-width="1.2"/>
<circle cx="107.0" cy="229.8" r="15.0" fill="#C0392B"/>
<circle cx="165.5" cy="229.8" r="27.8" fill="#FFE4E1" stroke="#C0392B" stroke-width="1.2"/>
<circle cx="165.5" cy="229.8" r="15.0" fill="#C0392B"/>
<circle cx="224.0" cy="229.8" r="27.8" fill="#FFF" stroke="#000" stroke-width="1.2"/>
<circle cx="224.0" cy="229.8" r="6.1" fill="#000"/>
<circle cx="282.5" cy="229.8" r="27.8" fill="#FFF" stroke="#000" stroke-width="1.2"/>
<circle cx="282.5" cy="229.8" r="6.1" fill="#000"/>
<circle cx="341.0" cy="229.8" r="27.8" fill="#FFF" stroke="#000" stroke-width="1.2"/>
<circle cx="341.0" cy="229.8" r="6.1" fill="#000"/>
<circle cx="399.5" cy="229.8" r="27.8" fill="#FFF" stroke="#000" stroke-width="1.2"/>
<circle cx="399.5" cy="229.8" r="6.1" fill="#000"/>
<circle cx="458.0" cy="229.8" r="27.8" fill="#FFF" stroke="#000" stroke-width="1.2"/>
<circle cx="458.0" cy="229.8" r="6.1" fill="#000"/>
<circle cx="516.5" cy="229.8" r="27.8" fill="#FFF" stroke="#000" stroke-width="1.2"/>
<circle cx="516.5" cy="229.8" r="6.1" fill="#000"/>
<circle cx="575.0" cy="229.8" r="27.8" fill="#FFE4E1" stroke="#C0392B" stroke-width="1.2"/>
<circle cx="575.0" cy="229.8" r="15.0" fill="#C0392B"/>
<circle cx="633.5" cy="229.8" r="27.8" fill="#FFE4E1" stroke="#C0392B" stroke-width="1.2"/>
<circle cx="633.5" cy="229.8" r="15.0" fill="#C0392B"/>
<circle cx="692.0" cy="229.8" r="27.8" fill="#FFF" stroke="#000" stroke-width="1.2"/>
<circle cx="692.0" cy="229.8" r="6.1" fill="#000"/>
<circle cx="750.5" cy="229.8" r="27.8" fill="#FFF" stroke="#000" stroke-width="1.2"/>
<circle cx="750.5" cy="229.8" r="6.1" fill="#000"/>
<circle cx="809.0" cy="229.8" r="27.8" fill="#FFF" stroke="#000" stroke-width="1.2"/>
<circle cx="809.0" cy="229.8" r="6.1" fill="#000"/>
<circle cx="77.8" cy="280.5" r="27.8" fill="#FFE4E1" stroke="#C0392B" stroke-width="1.2"/>
<circle cx="77.8" cy="280.5" r="15.0" fill="#C0392B"/>
<circle cx="136.2" cy="280.5" r="27.8" fill="#FFE4E1" stroke="#C0392B" stroke-width="1.2"/>
<circle cx="136.2" cy="280.5" r="15.0" fill="#C0392B"/>
<circle cx="194.8" cy="280.5" r="27.8" fill="#FFE4E1" stroke="#C0392B" stroke-width="1.2"/>
<circle cx="194.8" cy="280.5" r="15.0" fill="#C0392B"/>
<circle cx="253.2" cy="280.5" r="27.8" fill="#FFF" stroke="#000" stroke-width="1.2"/>
<circle cx="253.2" cy="280.5" r="6.1" fill="#000"/>
<circle cx="311.8" cy="280.5" r="27.8" fill="#FFF" stroke="#000" stroke-width="1.2"/>
<circle cx="311.8" cy="280.5" r="6.1" fill="#000"/>
<circle cx="370.2" cy="280.5" r="27.8" fill="#FFF" stroke="#000" stroke-width="1.2"/>
<circle cx="370.2" cy="280.5" r="6.1" fill="#000"/>
<circle cx="428.8" cy="280.5" r="27.8" fill="#FFF" stroke="#000" stroke-width="1.2"/>
<circle cx="428.8" cy="280.5" r="6.1" fill="#000"/>
<circle cx="487.2" cy="280.5" r="27.8" fill="#FFF" stroke="#000" stroke-width="1.2"/>
<circle cx="487.2" cy="280.5" r="6.1" fill="#000"/>
<circle cx="545.8" cy="280.5" r="27.8" fill="#FFE4E1" stroke="#C0392B" stroke-width="1.2"/>
<circle cx="545.8" cy="280.5" r="15.0" fill="#C0392B"/>
<circle cx="604.2" cy="280.5" r="27.8" fill="#FFE4E1" stroke="#C0392B" stroke-width="1.2"/>
<circle cx="604.2" cy="280.5" r="15.0" fill="#C0392B"/>
<circle cx="662.8" cy="280.5" r="27.8" fill="#FFE4E1" stroke="#C0392B" stroke-width="1.2"/>
<circle cx="662.8" cy="280.5" r="15.0" fill="#C0392B"/>
<circle cx="721.2" cy="280.5" r="27.8" fill="#FFF" stroke="#000" stroke-width="1.2"/>
<circle cx="721.2" cy="280.5" r="6.1" fill="#000"/>
<circle cx="779.8" cy="280.5" r="27.8" fill="#FFF" stroke="#000" stroke-width="1.2"/>
<circle cx="779.8" cy="280.5" r="6.1" fill="#000"/>
<circle cx="107.0" cy="331.2" r="27.8" fill="#FFE4E1" stroke="#C0392B" stroke-width="1.2"/>
<circle cx="107.0" cy="331.2" r="15.0" fill="#C0392B"/>
<circle cx="165.5" cy="331.2" r="27.8" fill="#FFE4E1" stroke="#C0392B" stroke-width="1.2"/>
<circle cx="165.5" cy="331.2" r="15.0" fill="#C0392B"/>
<circle cx="224.0" cy="331.2" r="27.8" fill="#FFE4E1" stroke="#C0392B" stroke-width="1.2"/>
<circle cx="224.0" cy="331.2" r="15.0" fill="#C0392B"/>
<circle cx="282.5" cy="331.2" r="27.8" fill="#FFE4E1" stroke="#C0392B" stroke-width="1.2"/>
<circle cx="282.5" cy="331.2" r="15.0" fill="#C0392B"/>
<circle cx="341.0" cy="331.2" r="27.8" fill="#FFE4E1" stroke="#C0392B" stroke-width="1.2"/>
<circle cx="341.0" cy="331.2" r="15.0" fill="#C0392B"/>
<circle cx="399.5" cy="331.2" r="27.8" fill="#FFF" stroke="#000" stroke-width="1.2"/>
<circle cx="399.5" cy="331.2" r="6.1" fill="#000"/>
<circle cx="458.0" cy="331.2" r="27.8" fill="#FFF" stroke="#000" stroke-width="1.2"/>
<circle cx="458.0" cy="331.2" r="6.1" fill="#000"/>
<circle cx="516.5" cy="331.2" r="27.8" fill="#FFF" stroke="#000" stroke-width="1.2"/>
<circle cx="516.5" cy="331.2" r="6.1" fill="#000"/>
<circle cx="575.0" cy="331.2" r="27.8" fill="#FFE4E1" stroke="#C0392B" stroke-width="1.2"/>
<circle cx="575.0" cy="331.2" r="15.0" fill="#C0392B"/>
<circle cx="633.5" cy="331.2" r="27.8" fill="#FFE4E1" stroke="#C0392B" stroke-width="1.2"/>
<circle cx="633.5" cy="331.2" r="15.0" fill="#C0392B"/>
<circle cx="692.0" cy="331.2" r="27.8" fill="#FFE4E1" stroke="#C0392B" stroke-width="1.2"/>
<circle cx="692.0" cy="331.2" r="15.0" fill="#C0392B"/>
<circle cx="750.5" cy="331.2" r="27.8" fill="#FFE4E1" stroke="#C0392B" stroke-width="1.2"/>
<circle cx="750.5" cy="331.2" r="15.0" fill="#C0392B"/>
<circle cx="809.0" cy="331.2" r="27.8" fill="#FFE4E1" stroke="#C0392B" stroke-width="1.2"/>
<circle cx="809.0" cy="331.2" r="15.0" fill="#C0392B"/>
<circle cx="370.2" cy="77.8" r="20.0" fill="#999" fill-opacity="0.6" stroke="#E74C3C" stroke-width="2.5"/>
<circle cx="428.8" cy="77.8" r="20.0" fill="#999" fill-opacity="0.6" stroke="#E74C3C" stroke-width="2.5"/>
<circle cx="487.2" cy="77.8" r="20.0" fill="#999" fill-opacity="0.6" stroke="#E74C3C" stroke-width="2.5"/>
<circle cx="545.8" cy="77.8" r="20.0" fill="#999" fill-opacity="0.6" stroke="#E74C3C" stroke-width="2.5"/>
<circle cx="604.2" cy="77.8" r="20.0" fill="#999" fill-opacity="0.6" stroke="#E74C3C" stroke-width="2.5"/>
<line x1="370.2" y1="77.8" x2="428.8" y2="77.8" stroke="#E74C3C" stroke-width="3.5" stroke-linecap="round" stroke-opacity="0.85"/>
<line x1="428.8" y1="77.8" x2="487.2" y2="77.8" stroke="#E74C3C" stroke-width="3.5" stroke-linecap="round" stroke-opacity="0.85"/>
<line x1="487.2" y1="77.8" x2="545.8" y2="77.8" stroke="#E74C3C" stroke-width="3.5" stroke-linecap="round" stroke-opacity="0.85"/>
<line x1="545.8" y1="77.8" x2="604.2" y2="77.8" stroke="#E74C3C" stroke-width="3.5" stroke-linecap="round" stroke-opacity="0.85"/>
<circle cx="662.8" cy="77.8" r="20.0" fill="#999" fill-opacity="0.6" stroke="#3498DB" stroke-width="2.5"/>
<circle cx="721.2" cy="77.8" r="20.0" fill="#999" fill-opacity="0.6" stroke="#3498DB" stroke-width="2.5"/>
<circle cx="633.5" cy="128.4" r="20.0" fill="#999" fill-opacity="0.6" stroke="#3498DB" stroke-width="2.5"/>
<circle cx="692.0" cy="128.4" r="20.0" fill="#999" fill-opacity="0.6" stroke="#3498DB" stroke-width="2.5"/>
<circle cx="750.5" cy="128.4" r="20.0" fill="#999" fill-opacity="0.6" stroke="#3498DB" stroke-width="2.5"/>
<circle cx="662.8" cy="179.1" r="20.0" fill="#999" fill-opacity="0.6" stroke="#3498DB" stroke-width="2.5"/>
<circle cx="779.8" cy="77.8" r="20.0" fill="#999" fill-opacity="0.6" stroke="#3498DB" stroke-width="2.5"/>
<circle cx="721.2" cy="179.1" r="20.0" fill="#999" fill-opacity="0.6" stroke="#3498DB" stroke-width="2.5"/>
<circle cx="779.8" cy="179.1" r="20.0" fill="#999" fill-opacity="0.6" stroke="#3498DB" stroke-width="2.5"/>
<circle cx="809.0" cy="128.4" r="20.0" fill="#999" fill-opacity="0.6" stroke="#3498DB" stroke-width="2.5"/>
<line x1="662.8" y1="77.8" x2="721.2" y2="77.8" stroke="#3498DB" stroke-width="3.5" stroke-linecap="round" stroke-opacity="0.85"/>
<line x1="662.8" y1="77.8" x2="633.5" y2="128.4" stroke="#3498DB" stroke-width="3.5" stroke-linecap="round" stroke-opacity="0.85"/>
<line x1="662.8" y1="77.8" x2="692.0" y2="128.4" stroke="#3498DB" stroke-width="3.5" stroke-linecap="round" stroke-opacity="0.85"/>
<line x1="721.2" y1="77.8" x2="692.0" y2="128.4" stroke="#3498DB" stroke-width="3.5" stroke-linecap="round" stroke-opacity="0.85"/>
<line x1="721.2" y1="77.8" x2="750.5" y2="128.4" stroke="#3498DB" stroke-width="3.5" stroke-linecap="round" stroke-opacity="0.85"/>
<line x1="721.2" y1="77.8" x2="779.8" y2="77.8" stroke="#3498DB" stroke-width="3.5" stroke-linecap="round" stroke-opacity="0.85"/>
<line x1="633.5" y1="128.4" x2="692.0" y2="128.4" stroke="#3498DB" stroke-width="3.5" stroke-linecap="round" stroke-opacity="0.85"/>
<line x1="633.5" y1="128.4" x2="662.8" y2="179.1" stroke="#3498DB" stroke-width="3.5" stroke-linecap="round" stroke-opacity="0.85"/>
<line x1="692.0" y1="128.4" x2="750.5" y2="128.4" stroke="#3498DB" stroke-width="3.5" stroke-linecap="round" stroke-opacity="0.85"/>
<line x1="692.0" y1="128.4" x2="662.8" y2="179.1" stroke="#3498DB" stroke-width="3.5" stroke-linecap="round" stroke-opacity="0.85"/>
<line x1="692.0" y1="128.4" x2="721.2" y2="179.1" stroke="#3498DB" stroke-width="3.5" stroke-linecap="round" stroke-opacity="0.85"/>
<line x1="750.5" y1="128.4" x2="779.8" y2="77.8" stroke="#3498DB" stroke-width="3.5" stroke-linecap="round" stroke-opacity="0.85"/>
<line x1="750.5" y1="128.4" x2="721.2" y2="179.1" stroke="#3498DB" stroke-width="3.5" stroke-linecap="round" stroke-opacity="0.85"/>
<line x1="750.5" y1="128.4" x2="779.8" y2="179.1" stroke="#3498DB" stroke-width="3.5" stroke-linecap="round" stroke-opacity="0.85"/>
<line x1="750.5" y1="128.4" x2="809.0" y2="128.4" stroke="#3498DB" stroke-width="3.5" stroke-linecap="round" stroke-opacity="0.85"/>
<line x1="662.8" y1="179.1" x2="721.2" y2="179.1" stroke="#3498DB" stroke-width="3.5" stroke-linecap="round" stroke-opacity="0.85"/>
<line x1="779.8" y1="77.8" x2="809.0" y2="128.4" stroke="#3498DB" stroke-width="3.5" stroke-linecap="round" stroke-opacity="0.85"/>
<line x1="721.2" y1="179.1" x2="779.8" y2="179.1" stroke="#3498DB" stroke-width="3.5" stroke-linecap="round" stroke-opacity="0.85"/>
<line x1="779.8" y1="179.1" x2="809.0" y2="128.4" stroke="#3498DB" stroke-width="3.5" stroke-linecap="round" stroke-opacity="0.85"/>
<circle cx="516.5" cy="229.8" r="20.0" fill="#999" fill-opacity="0.6" stroke="#27AE60" stroke-width="2.5"/>
<circle cx="545.8" cy="179.1" r="20.0" fill="#999" fill-opacity="0.6" stroke="#27AE60" stroke-width="2.5"/>
<circle cx="604.2" cy="179.1" r="20.0" fill="#999" fill-opacity="0.6" stroke="#27AE60" stroke-width="2.5"/>
<circle cx="516.5" cy="128.4" r="20.0" fill="#999" fill-opacity="0.6" stroke="#27AE60" stroke-width="2.5"/>
<circle cx="575.0" cy="128.4" r="20.0" fill="#999" fill-opacity="0.6" stroke="#27AE60" stroke-width="2.5"/>
<circle cx="370.2" cy="179.1" r="20.0" fill="#999" fill-opacity="0.6" stroke="#27AE60" stroke-width="2.5"/>
<circle cx="428.8" cy="179.1" r="20.0" fill="#999" fill-opacity="0.6" stroke="#27AE60" stroke-width="2.5"/>
<circle cx="487.2" cy="179.1" r="20.0" fill="#999" fill-opacity="0.6" stroke="#27AE60" stroke-width="2.5"/>
<circle cx="399.5" cy="128.4" r="20.0" fill="#999" fill-opacity="0.6" stroke="#27AE60" stroke-width="2.5"/>
<circle cx="458.0" cy="128.4" r="20.0" fill="#999" fill-opacity="0.6" stroke="#27AE60" stroke-width="2.5"/>
<line x1="516.5" y1="229.8" x2="545.8" y2="179.1" stroke="#27AE60" stroke-width="3.5" stroke-linecap="round" stroke-opacity="0.85"/>
<line x1="516.5" y1="229.8" x2="487.2" y2="179.1" stroke="#27AE60" stroke-width="3.5" stroke-linecap="round" stroke-opacity="0.85"/>
<line x1="545.8" y1="179.1" x2="604.2" y2="179.1" stroke="#27AE60" stroke-width="3.5" stroke-linecap="round" stroke-opacity="0.85"/>
<line x1="545.8" y1="179.1" x2="516.5" y2="128.4" stroke="#27AE60" stroke-width="3.5" stroke-linecap="round" stroke-opacity="0.85"/>
<line x1="545.8" y1="179.1" x2="575.0" y2="128.4" stroke="#27AE60" stroke-width="3.5" stroke-linecap="round" stroke-opacity="0.85"/>
<line x1="545.8" y1="179.1" x2="487.2" y2="179.1" stroke="#27AE60" stroke-width="3.5" stroke-linecap="round" stroke-opacity="0.85"/>
<line x1="604.2" y1="179.1" x2="575.0" y2="128.4" stroke="#27AE60" stroke-width="3.5" stroke-linecap="round" stroke-opacity="0.85"/>
<line x1="516.5" y1="128.4" x2="575.0" y2="128.4" stroke="#27AE60" stroke-width="3.5" stroke-linecap="round" stroke-opacity="0.85"/>
<line x1="516.5" y1="128.4" x2="487.2" y2="179.1" stroke="#27AE60" stroke-width="3.5" stroke-linecap="round" stroke-opacity="0.85"/>
<line x1="516.5" y1="128.4" x2="458.0" y2="128.4" stroke="#27AE60" stroke-width="3.5" stroke-linecap="round" stroke-opacity="0.85"/>
<line x1="370.2" y1="179.1" x2="428.8" y2="179.1" stroke="#27AE60" stroke-width="3.5" stroke-linecap="round" stroke-opacity="0.85"/>
<line x1="370.2" y1="179.1" x2="399.5" y2="128.4" stroke="#27AE60" stroke-width="3.5" stroke-linecap="round" stroke-opacity="0.85"/>
<line x1="428.8" y1="179.1" x2="487.2" y2="179.1" stroke="#27AE60" stroke-width="3.5" stroke-linecap="round" stroke-opacity="0.85"/>
<line x1="428.8" y1="179.1" x2="399.5" y2="128.4" stroke="#27AE60" stroke-width="3.5" stroke-linecap="round" stroke-opacity="0.85"/>
<line x1="428.8" y1="179.1" x2="458.0" y2="128.4" stroke="#27AE60" stroke-width="3.5" stroke-linecap="round" stroke-opacity="0.85"/>
<line x1="487.2" y1="179.1" x2="458.0" y2="128.4" stroke="#27AE60" stroke-width="3.5" stroke-linecap="round" stroke-opacity="0.85"/>
<line x1="399.5" y1="128.4" x2="458.0" y2="128.4" stroke="#27AE60" stroke-width="3.5" stroke-linecap="round" stroke-opacity="0.85"/>
<circle cx="253.2" cy="179.1" r="20.0" fill="#999" fill-opacity="0.6" stroke="#F39C12" stroke-width="3.5"/>
<circle cx="311.8" cy="179.1" r="20.0" fill="#999" fill-opacity="0.6" stroke="#F39C12" stroke-width="3.5"/>
<circle cx="224.0" cy="229.8" r="20.0" fill="#999" fill-opacity="0.6" stroke="#F39C12" stroke-width="3.5"/>
<circle cx="282.5" cy="229.8" r="20.0" fill="#999" fill-opacity="0.6" stroke="#F39C12" stroke-width="3.5"/>
<circle cx="341.0" cy="229.8" r="20.0" fill="#999" fill-opacity="0.6" stroke="#F39C12" stroke-width="3.5"/>
<circle cx="77.8" cy="280.5" r="20.0" fill="#999" fill-opacity="0.6" stroke="#F39C12" stroke-width="3.5"/>
<circle cx="136.2" cy="280.5" r="20.0" fill="#999" fill-opacity="0.6" stroke="#F39C12" stroke-width="3.5"/>
<circle cx="194.8" cy="280.5" r="20.0" fill="#999" fill-opacity="0.6" stroke="#F39C12" stroke-width="3.5"/>
<circle cx="107.0" cy="229.8" r="20.0" fill="#999" fill-opacity="0.6" stroke="#F39C12" stroke-width="3.5"/>
<circle cx="165.5" cy="229.8" r="20.0" fill="#999" fill-opacity="0.6" stroke="#F39C12" stroke-width="3.5"/>
<line x1="253.2" y1="179.1" x2="311.8" y2="179.1" stroke="#F39C12" stroke-width="4.8999999999999995" stroke-linecap="round" stroke-opacity="0.85"/>
<line x1="253.2" y1="179.1" x2="224.0" y2="229.8" stroke="#F39C12" stroke-width="4.8999999999999995" stroke-linecap="round" stroke-opacity="0.85"/>
<line x1="253.2" y1="179.1" x2="282.5" y2="229.8" stroke="#F39C12" stroke-width="4.8999999999999995" stroke-linecap="round" stroke-opacity="0.85"/>
<line x1="311.8" y1="179.1" x2="282.5" y2="229.8" stroke="#F39C12" stroke-width="4.8999999999999995" stroke-linecap="round" stroke-opacity="0.85"/>
<line x1="311.8" y1="179.1" x2="341.0" y2="229.8" stroke="#F39C12" stroke-width="4.8999999999999995" stroke-linecap="round" stroke-opacity="0.85"/>
<line x1="224.0" y1="229.8" x2="282.5" y2="229.8" stroke="#F39C12" stroke-width="4.8999999999999995" stroke-linecap="round" stroke-opacity="0.85"/>
<line x1="224.0" y1="229.8" x2="194.8" y2="280.5" stroke="#F39C12" stroke-width="4.8999999999999995" stroke-linecap="round" stroke-opacity="0.85"/>
<line x1="224.0" y1="229.8" x2="165.5" y2="229.8" stroke="#F39C12" stroke-width="4.8999999999999995" stroke-linecap="round" stroke-opacity="0.85"/>
<line x1="282.5" y1="229.8" x2="341.0" y2="229.8" stroke="#F39C12" stroke-width="4.8999999999999995" stroke-linecap="round" stroke-opacity="0.85"/>
<line x1="77.8" y1="280.5" x2="136.2" y2="280.5" stroke="#F39C12" stroke-width="4.8999999999999995" stroke-linecap="round" stroke-opacity="0.85"/>
<line x1="77.8" y1="280.5" x2="107.0" y2="229.8" stroke="#F39C12" stroke-width="4.8999999999999995" stroke-linecap="round" stroke-opacity="0.85"/>
<line x1="136.2" y1="280.5" x2="194.8" y2="280.5" stroke="#F39C12" stroke-width="4.8999999999999995" stroke-linecap="round" stroke-opacity="0.85"/>
<line x1="136.2" y1="280.5" x2="107.0" y2="229.8" stroke="#F39C12" stroke-width="4.8999999999999995" stroke-linecap="round" stroke-opacity="0.85"/>
<line x1="136.2" y1="280.5" x2="165.5" y2="229.8" stroke="#F39C12" stroke-width="4.8999999999999995" stroke-linecap="round" stroke-opacity="0.85"/>
<line x1="194.8" y1="280.5" x2="165.5" y2="229.8" stroke="#F39C12" stroke-width="4.8999999999999995" stroke-linecap="round" stroke-opacity="0.85"/>
<line x1="107.0" y1="229.8" x2="165.5" y2="229.8" stroke="#F39C12" stroke-width="4.8999999999999995" stroke-linecap="round" stroke-opacity="0.85"/>
<circle cx="458.0" cy="229.8" r="20.0" fill="#999" fill-opacity="0.6" stroke="#8E44AD" stroke-width="2.5"/>
<circle cx="253.2" cy="280.5" r="20.0" fill="#999" fill-opacity="0.6" stroke="#8E44AD" stroke-width="2.5"/>
<circle cx="311.8" cy="280.5" r="20.0" fill="#999" fill-opacity="0.6" stroke="#8E44AD" stroke-width="2.5"/>
<circle cx="370.2" cy="280.5" r="20.0" fill="#999" fill-opacity="0.6" stroke="#8E44AD" stroke-width="2.5"/>
<circle cx="399.5" cy="229.8" r="20.0" fill="#999" fill-opacity="0.6" stroke="#8E44AD" stroke-width="2.5"/>
<circle cx="107.0" cy="331.2" r="20.0" fill="#999" fill-opacity="0.6" stroke="#8E44AD" stroke-width="2.5"/>
<circle cx="165.5" cy="331.2" r="20.0" fill="#999" fill-opacity="0.6" stroke="#8E44AD" stroke-width="2.5"/>
<circle cx="224.0" cy="331.2" r="20.0" fill="#999" fill-opacity="0.6" stroke="#8E44AD" stroke-width="2.5"/>
<circle cx="282.5" cy="331.2" r="20.0" fill="#999" fill-opacity="0.6" stroke="#8E44AD" stroke-width="2.5"/>
<circle cx="341.0" cy="331.2" r="20.0" fill="#999" fill-opacity="0.6" stroke="#8E44AD" stroke-width="2.5"/>
<line x1="458.0" y1="229.8" x2="399.5" y2="229.8" stroke="#8E44AD" stroke-width="3.5" stroke-linecap="round" stroke-opacity="0.85"/>
<line x1="253.2" y1="280.5" x2="311.8" y2="280.5" stroke="#8E44AD" stroke-width="3.5" stroke-linecap="round" stroke-opacity="0.85"/>
<line x1="253.2" y1="280.5" x2="224.0" y2="331.2" stroke="#8E44AD" stroke-width="3.5" stroke-linecap="round" stroke-opacity="0.85"/>
<line x1="253.2" y1="280.5" x2="282.5" y2="331.2" stroke="#8E44AD" stroke-width="3.5" stroke-linecap="round" stroke-opacity="0.85"/>
<line x1="311.8" y1="280.5" x2="370.2" y2="280.5" stroke="#8E44AD" stroke-width="3.5" stroke-linecap="round" stroke-opacity="0.85"/>
<line x1="311.8" y1="280.5" x2="282.5" y2="331.2" stroke="#8E44AD" stroke-width="3.5" stroke-linecap="round" stroke-opacity="0.85"/>
<line x1="311.8" y1="280.5" x2="341.0" y2="331.2" stroke="#8E44AD" stroke-width="3.5" stroke-linecap="round" stroke-opacity="0.85"/>
<line x1="370.2" y1="280.5" x2="399.5" y2="229.8" stroke="#8E44AD" stroke-width="3.5" stroke-linecap="round" stroke-opacity="0.85"/>
<line x1="370.2" y1="280.5" x2="341.0" y2="331.2" stroke="#8E44AD" stroke-width="3.5" stroke-linecap="round" stroke-opacity="0.85"/>
<line x1="107.0" y1="331.2" x2="165.5" y2="331.2" stroke="#8E44AD" stroke-width="3.5" stroke-linecap="round" stroke-opacity="0.85"/>
<line x1="165.5" y1="331.2" x2="224.0" y2="331.2" stroke="#8E44AD" stroke-width="3.5" stroke-linecap="round" stroke-opacity="0.85"/>
<line x1="224.0" y1="331.2" x2="282.5" y2="331.2" stroke="#8E44AD" stroke-width="3.5" stroke-linecap="round" stroke-opacity="0.85"/>
<line x1="282.5" y1="331.2" x2="341.0" y2="331.2" stroke="#8E44AD" stroke-width="3.5" stroke-linecap="round" stroke-opacity="0.85"/>
<circle cx="399.5" cy="331.2" r="20.0" fill="#999" fill-opacity="0.6" stroke="#F39C12" stroke-width="3.5"/>
<circle cx="458.0" cy="331.2" r="20.0" fill="#999" fill-opacity="0.6" stroke="#F39C12" stroke-width="3.5"/>
<circle cx="516.5" cy="331.2" r="20.0" fill="#999" fill-opacity="0.6" stroke="#F39C12" stroke-width="3.5"/>
<circle cx="428.8" cy="280.5" r="20.0" fill="#999" fill-opacity="0.6" stroke="#F39C12" stroke-width="3.5"/>
<circle cx="487.2" cy="280.5" r="20.0" fill="#999" fill-opacity="0.6" stroke="#F39C12" stroke-width="3.5"/>
<circle cx="604.2" cy="280.5" r="20.0" fill="#999" fill-opacity="0.6" stroke="#F39C12" stroke-width="3.5"/>
<circle cx="662.8" cy="280.5" r="20.0" fill="#999" fill-opacity="0.6" stroke="#F39C12" stroke-width="3.5"/>
<circle cx="575.0" cy="229.8" r="20.0" fill="#999" fill-opacity="0.6" stroke="#F39C12" stroke-width="3.5"/>
<circle cx="633.5" cy="229.8" r="20.0" fill="#999" fill-opacity="0.6" stroke="#F39C12" stroke-width="3.5"/>
<circle cx="545.8" cy="280.5" r="20.0" fill="#999" fill-opacity="0.6" stroke="#F39C12" stroke-width="3.5"/>
<line x1="399.5" y1="331.2" x2="458.0" y2="331.2" stroke="#F39C12" stroke-width="4.8999999999999995" stroke-linecap="round" stroke-opacity="0.85"/>
<line x1="399.5" y1="331.2" x2="428.8" y2="280.5" stroke="#F39C12" stroke-width="4.8999999999999995" stroke-linecap="round" stroke-opacity="0.85"/>
<line x1="458.0" y1="331.2" x2="516.5" y2="331.2" stroke="#F39C12" stroke-width="4.8999999999999995" stroke-linecap="round" stroke-opacity="0.85"/>
<line x1="458.0" y1="331.2" x2="428.8" y2="280.5" stroke="#F39C12" stroke-width="4.8999999999999995" stroke-linecap="round" stroke-opacity="0.85"/>
<line x1="458.0" y1="331.2" x2="487.2" y2="280.5" stroke="#F39C12" stroke-width="4.8999999999999995" stroke-linecap="round" stroke-opacity="0.85"/>
<line x1="516.5" y1="331.2" x2="487.2" y2="280.5" stroke="#F39C12" stroke-width="4.8999999999999995" stroke-linecap="round" stroke-opacity="0.85"/>
<line x1="516.5" y1="331.2" x2="545.8" y2="280.5" stroke="#F39C12" stroke-width="4.8999999999999995" stroke-linecap="round" stroke-opacity="0.85"/>
<line x1="428.8" y1="280.5" x2="487.2" y2="280.5" stroke="#F39C12" stroke-width="4.8999999999999995" stroke-linecap="round" stroke-opacity="0.85"/>
<line x1="487.2" y1="280.5" x2="545.8" y2="280.5" stroke="#F39C12" stroke-width="4.8999999999999995" stroke-linecap="round" stroke-opacity="0.85"/>
<line x1="604.2" y1="280.5" x2="662.8" y2="280.5" stroke="#F39C12" stroke-width="4.8999999999999995" stroke-linecap="round" stroke-opacity="0.85"/>
<line x1="604.2" y1="280.5" x2="575.0" y2="229.8" stroke="#F39C12" stroke-width="4.8999999999999995" stroke-linecap="round" stroke-opacity="0.85"/>
<line x1="604.2" y1="280.5" x2="633.5" y2="229.8" stroke="#F39C12" stroke-width="4.8999999999999995" stroke-linecap="round" stroke-opacity="0.85"/>
<line x1="604.2" y1="280.5" x2="545.8" y2="280.5" stroke="#F39C12" stroke-width="4.8999999999999995" stroke-linecap="round" stroke-opacity="0.85"/>
<line x1="662.8" y1="280.5" x2="633.5" y2="229.8" stroke="#F39C12" stroke-width="4.8999999999999995" stroke-linecap="round" stroke-opacity="0.85"/>
<line x1="575.0" y1="229.8" x2="633.5" y2="229.8" stroke="#F39C12" stroke-width="4.8999999999999995" stroke-linecap="round" stroke-opacity="0.85"/>
<line x1="575.0" y1="229.8" x2="545.8" y2="280.5" stroke="#F39C12" stroke-width="4.8999999999999995" stroke-linecap="round" stroke-opacity="0.85"/>
<circle cx="721.2" cy="280.5" r="20.0" fill="#999" fill-opacity="0.6" stroke="#E91E63" stroke-width="2.5"/>
<circle cx="779.8" cy="280.5" r="20.0" fill="#999" fill-opacity="0.6" stroke="#E91E63" stroke-width="2.5"/>
<circle cx="692.0" cy="229.8" r="20.0" fill="#999" fill-opacity="0.6" stroke="#E91E63" stroke-width="2.5"/>
<circle cx="750.5" cy="229.8" r="20.0" fill="#999" fill-opacity="0.6" stroke="#E91E63" stroke-width="2.5"/>
<circle cx="809.0" cy="229.8" r="20.0" fill="#999" fill-opacity="0.6" stroke="#E91E63" stroke-width="2.5"/>
<circle cx="809.0" cy="331.2" r="20.0" fill="#999" fill-opacity="0.6" stroke="#E91E63" stroke-width="2.5"/>
<circle cx="575.0" cy="331.2" r="20.0" fill="#999" fill-opacity="0.6" stroke="#E91E63" stroke-width="2.5"/>
<circle cx="633.5" cy="331.2" r="20.0" fill="#999" fill-opacity="0.6" stroke="#E91E63" stroke-width="2.5"/>
<circle cx="692.0" cy="331.2" r="20.0" fill="#999" fill-opacity="0.6" stroke="#E91E63" stroke-width="2.5"/>
<circle cx="750.5" cy="331.2" r="20.0" fill="#999" fill-opacity="0.6" stroke="#E91E63" stroke-width="2.5"/>
<line x1="721.2" y1="280.5" x2="779.8" y2="280.5" stroke="#E91E63" stroke-width="3.5" stroke-linecap="round" stroke-opacity="0.85"/>
<line x1="721.2" y1="280.5" x2="692.0" y2="229.8" stroke="#E91E63" stroke-width="3.5" stroke-linecap="round" stroke-opacity="0.85"/>
<line x1="721.2" y1="280.5" x2="750.5" y2="229.8" stroke="#E91E63" stroke-width="3.5" stroke-linecap="round" stroke-opacity="0.85"/>
<line x1="721.2" y1="280.5" x2="692.0" y2="331.2" stroke="#E91E63" stroke-width="3.5" stroke-linecap="round" stroke-opacity="0.85"/>
<line x1="721.2" y1="280.5" x2="750.5" y2="331.2" stroke="#E91E63" stroke-width="3.5" stroke-linecap="round" stroke-opacity="0.85"/>
<line x1="779.8" y1="280.5" x2="750.5" y2="229.8" stroke="#E91E63" stroke-width="3.5" stroke-linecap="round" stroke-opacity="0.85"/>
<line x1="779.8" y1="280.5" x2="809.0" y2="229.8" stroke="#E91E63" stroke-width="3.5" stroke-linecap="round" stroke-opacity="0.85"/>
<line x1="779.8" y1="280.5" x2="809.0" y2="331.2" stroke="#E91E63" stroke-width="3.5" stroke-linecap="round" stroke-opacity="0.85"/>
<line x1="779.8" y1="280.5" x2="750.5" y2="331.2" stroke="#E91E63" stroke-width="3.5" stroke-linecap="round" stroke-opacity="0.85"/>
<line x1="692.0" y1="229.8" x2="750.5" y2="229.8" stroke="#E91E63" stroke-width="3.5" stroke-linecap="round" stroke-opacity="0.85"/>
<line x1="750.5" y1="229.8" x2="809.0" y2="229.8" stroke="#E91E63" stroke-width="3.5" stroke-linecap="round" stroke-opacity="0.85"/>
<line x1="809.0" y1="331.2" x2="750.5" y2="331.2" stroke="#E91E63" stroke-width="3.5" stroke-linecap="round" stroke-opacity="0.85"/>
<line x1="575.0" y1="331.2" x2="633.5" y2="331.2" stroke="#E91E63" stroke-width="3.5" stroke-linecap="round" stroke-opacity="0.85"/>
<line x1="633.5" y1="331.2" x2="692.0" y2="331.2" stroke="#E91E63" stroke-width="3.5" stroke-linecap="round" stroke-opacity="0.85"/>
<line x1="692.0" y1="331.2" x2="750.5" y2="331.2" stroke="#E91E63" stroke-width="3.5" stroke-linecap="round" stroke-opacity="0.85"/>
<rect x="461.2" y="65.8" width="52" height="24" fill="white" fill-opacity="0.92" stroke="#555" stroke-width="0.8" rx="4"/>
<text x="487.2" y="81.8" text-anchor="middle" font-size="11" font-weight="bold" fill="#555">P0·T0</text>
<rect x="695.2" y="116.4" width="52" height="24" fill="white" fill-opacity="0.92" stroke="#555" stroke-width="0.8" rx="4"/>
<text x="721.2" y="132.4" text-anchor="middle" font-size="11" font-weight="bold" fill="#555">P1·T1</text>
<rect x="464.2" y="151.9" width="52" height="24" fill="white" fill-opacity="0.92" stroke="#555" stroke-width="0.8" rx="4"/>
<text x="490.2" y="167.9" text-anchor="middle" font-size="11" font-weight="bold" fill="#555">P2·T2</text>
<rect x="183.4" y="222.9" width="52" height="24" fill="#FFE8EF" fill-opacity="0.92" stroke="#F39C12" stroke-width="1.8" rx="4"/>
<text x="209.4" y="238.9" text-anchor="middle" font-size="11" font-weight="bold" fill="#F39C12">P3·T3 ★</text>
<rect x="265.3" y="283.8" width="52" height="24" fill="white" fill-opacity="0.92" stroke="#555" stroke-width="0.8" rx="4"/>
<text x="291.3" y="299.8" text-anchor="middle" font-size="11" font-weight="bold" fill="#555">P4·T4</text>
<rect x="505.1" y="273.6" width="52" height="24" fill="#FFE8EF" fill-opacity="0.92" stroke="#F39C12" stroke-width="1.8" rx="4"/>
<text x="531.1" y="289.6" text-anchor="middle" font-size="11" font-weight="bold" fill="#F39C12">P5·T3 ★</text>
<rect x="695.2" y="278.7" width="52" height="24" fill="white" fill-opacity="0.92" stroke="#555" stroke-width="0.8" rx="4"/>
<text x="721.2" y="294.7" text-anchor="middle" font-size="11" font-weight="bold" fill="#555">P6·T5</text>
<text x="443" y="434" text-anchor="middle" font-size="15" font-weight="bold" fill="#222">SFMT+ICC 13S5P · 실무 콤팩트성 충족 · 6종 7판 · 행스팬 합=12</text>
<text x="443" y="454" text-anchor="middle" font-size="12" fill="#555">동일 형상 쌍 ★: P3,P5  ·  나머지 5종 고유  ·  평균 종횡비=2.58</text>
<text x="443" y="474" text-anchor="middle" font-size="10" fill="#27AE60">이론 v0.2.16+SFMT+ICC · 원칙 18·19 적용 · 스탬핑/용접/써멀/Jig fit 검증</text>
</svg>